<?xml version="1.0" encoding="utf-8"?>
<!-- Generator: Adobe Illustrator 24.1.0, SVG Export Plug-In . SVG Version: 6.00 Build 0)  -->
<svg version="1.1" id="Layer_1" xmlns="http://www.w3.org/2000/svg" xmlns:xlink="http://www.w3.org/1999/xlink" x="0px" y="0px"
	 viewBox="0 0 283.2 85.4" style="enable-background:new 0 0 283.2 85.4;" xml:space="preserve">
<style type="text/css">
	.st0{fill:#ED1C24;}
	.st1{fill:none;stroke:#ED1C24;stroke-width:0.234;}
	.st2{fill:none;stroke:#000000;stroke-width:0.234;}
	.st3{fill:#FAC90E;}
	.st4{fill:#00B6A1;}
	.st5{fill:#00589F;}
	.st6{fill:#F7941D;}
</style>
<polyline class="st0" points="42.8,70.1 38.4,59.4 39.2,59.4 43.3,69.3 47.5,59.4 48.3,59.4 43.7,70.1 42.8,70.1 "/>
<polygon class="st1" points="42.8,70.1 38.4,59.4 39.2,59.4 43.3,69.3 47.5,59.4 48.3,59.4 43.7,70.1 "/>
<path class="st0" d="M54,59.1c3.2,0,5.6,2.5,5.6,5.5c0,3.2-2.4,5.7-5.5,5.7c-3.2,0-5.6-2.6-5.6-5.6C48.5,61.6,51.1,59.1,54,59.1
	 M54.1,69.8c2.7,0,4.8-2.1,4.8-5.2c0-2.8-2.1-4.9-5-4.9c-2.5,0-4.8,2.2-4.8,5.1C49.2,67.4,51.2,69.8,54.1,69.8z"/>
<path class="st1" d="M54,59.1c3.2,0,5.6,2.5,5.6,5.5c0,3.2-2.4,5.7-5.5,5.7c-3.2,0-5.6-2.6-5.6-5.6C48.5,61.6,51.1,59.1,54,59.1z
	 M54.1,69.8c2.7,0,4.8-2.1,4.8-5.2c0-2.8-2.1-4.9-5-4.9c-2.5,0-4.8,2.2-4.8,5.1C49.2,67.4,51.2,69.8,54.1,69.8z"/>
<rect x="61.5" y="56" class="st0" width="0.7" height="14.1"/>
<path class="st1" d="M61.5,70.1 M62.2,70.1h-0.7V56h0.7V70.1z"/>
<rect x="64.8" y="56" class="st0" width="0.7" height="14.1"/>
<path class="st1" d="M64.8,70.1 M65.5,70.1h-0.7V56h0.7V70.1z"/>
<path class="st0" d="M68.1,65c0.1,2.9,2.2,4.8,4.9,4.8c2,0,3.6-1.1,4.5-3.1h0.7c-1,2.4-2.9,3.6-5.2,3.6c-3.3,0-5.6-2.6-5.6-5.6
	c0-3.2,2.5-5.6,5.5-5.6c3.3,0,5.6,2.3,5.7,5.9H68.1 M73,59.6c-2.6,0-4.6,1.8-4.9,4.7h9.8C77.5,61.4,75.6,59.6,73,59.6z"/>
<path class="st1" d="M68.1,65c0.1,2.9,2.2,4.8,4.9,4.8c2,0,3.6-1.1,4.5-3.1h0.7c-1,2.4-2.9,3.6-5.2,3.6c-3.3,0-5.6-2.6-5.6-5.6
	c0-3.2,2.5-5.6,5.5-5.6c3.3,0,5.6,2.3,5.7,5.9H68.1z M73,59.6c-2.6,0-4.6,1.8-4.9,4.7h9.8C77.5,61.4,75.6,59.6,73,59.6z"/>
<path class="st0" d="M80.3,59.4H81v1.2c0.7-0.9,1.4-1.3,2.4-1.4V60c-1.9,0.2-2.4,1.1-2.4,2.9v7.1h-0.7V59.4"/>
<path class="st1" d="M80.3,59.4H81v1.2c0.7-0.9,1.4-1.3,2.4-1.4V60c-1.9,0.2-2.4,1.1-2.4,2.9v7.1h-0.7V59.4z"/>
<rect x="90.3" y="56" class="st0" width="0.7" height="14.1"/>
<path class="st1" d="M90.3,70.1 M91,70.1h-0.7V56H91V70.1z"/>
<path class="st0" d="M103.4,56h0.6v14.1h-0.6v-2.5c-1.3,1.9-2.8,2.8-4.8,2.8c-3.2,0-5.6-2.5-5.6-5.6c0-3,2.3-5.6,5.6-5.6
	c2.1,0,3.7,1,4.8,2.9V56 M98.5,59.7c-2.7,0-4.8,2.2-4.8,5.1c0,2.9,2.3,5.1,4.9,5.1c2.5,0,4.8-2.2,4.8-5
	C103.4,61.9,101.1,59.7,98.5,59.7z"/>
<path class="st1" d="M103.4,56h0.6v14.1h-0.6v-2.5c-1.3,1.9-2.8,2.8-4.8,2.8c-3.2,0-5.6-2.5-5.6-5.6c0-3,2.3-5.6,5.6-5.6
	c2.1,0,3.7,1,4.8,2.9V56z M98.5,59.7c-2.7,0-4.8,2.2-4.8,5.1c0,2.9,2.3,5.1,4.9,5.1c2.5,0,4.8-2.2,4.8-5
	C103.4,61.9,101.1,59.7,98.5,59.7z"/>
<path class="st0" d="M106.5,65c0.1,2.9,2.2,4.8,4.9,4.8c2,0,3.6-1.1,4.5-3.1h0.7c-1,2.4-2.9,3.6-5.2,3.6c-3.3,0-5.6-2.6-5.6-5.6
	c0-3.2,2.5-5.6,5.5-5.6c3.3,0,5.6,2.3,5.7,5.9H106.5 M111.4,59.6c-2.6,0-4.6,1.8-4.9,4.7h9.8C115.9,61.4,114,59.6,111.4,59.6z"/>
<path class="st1" d="M106.5,65c0.1,2.9,2.2,4.8,4.9,4.8c2,0,3.6-1.1,4.5-3.1h0.7c-1,2.4-2.9,3.6-5.2,3.6c-3.3,0-5.6-2.6-5.6-5.6
	c0-3.2,2.5-5.6,5.5-5.6c3.3,0,5.6,2.3,5.7,5.9H106.5z M111.4,59.6c-2.6,0-4.6,1.8-4.9,4.7h9.8C115.9,61.4,114,59.6,111.4,59.6z"/>
<path class="st0" d="M118.7,65c0.1,2.9,2.2,4.8,4.9,4.8c2,0,3.6-1.1,4.5-3.1h0.7c-1,2.4-2.9,3.6-5.2,3.6c-3.3,0-5.6-2.6-5.6-5.6
	c0-3.2,2.5-5.6,5.5-5.6c3.3,0,5.6,2.3,5.7,5.9H118.7 M123.7,59.6c-2.6,0-4.6,1.8-4.9,4.7h9.8C128.1,61.4,126.2,59.6,123.7,59.6z"/>
<path class="st1" d="M118.7,65c0.1,2.9,2.2,4.8,4.9,4.8c2,0,3.6-1.1,4.5-3.1h0.7c-1,2.4-2.9,3.6-5.2,3.6c-3.3,0-5.6-2.6-5.6-5.6
	c0-3.2,2.5-5.6,5.5-5.6c3.3,0,5.6,2.3,5.7,5.9H118.7z M123.7,59.6c-2.6,0-4.6,1.8-4.9,4.7h9.8C128.1,61.4,126.2,59.6,123.7,59.6z"/>
<path class="st0" d="M131.6,61.2c0.9-1.3,2.1-2,3.7-2c1.6,0,2.8,0.5,3.6,1.7c0.7,1,0.8,2,0.8,3.4v5.8h-0.6v-5.7
	c0-3.1-1.3-4.6-3.8-4.6c-1.3,0-2.4,0.5-3.1,1.6c-0.6,0.9-0.6,1.9-0.6,3.2v5.5h-0.6V59.4h0.7V61.2"/>
<path class="st1" d="M131.6,61.2c0.9-1.3,2.1-2,3.7-2c1.6,0,2.8,0.5,3.6,1.7c0.7,1,0.8,2,0.8,3.4v5.8h-0.6v-5.7
	c0-3.1-1.3-4.6-3.8-4.6c-1.3,0-2.4,0.5-3.1,1.6c-0.6,0.9-0.6,1.9-0.6,3.2v5.5h-0.6V59.4h0.7V61.2z"/>
<path d="M154.3,68.3c-0.9,1.3-2.1,2-3.7,2c-2.8,0-4.5-1.6-4.5-4.7v-6.2h0.7v5.7c0,3.1,1.2,4.6,3.8,4.6c1.3,0,2.4-0.5,3.1-1.6
	c0.6-0.9,0.6-1.9,0.6-3.2v-5.6h0.7v10.6h-0.7V68.3"/>
<path class="st2" d="M154.3,68.3c-0.9,1.3-2.1,2-3.7,2c-2.8,0-4.5-1.6-4.5-4.7v-6.2h0.7v5.7c0,3.1,1.2,4.6,3.8,4.6
	c1.3,0,2.4-0.5,3.1-1.6c0.6-0.9,0.6-1.9,0.6-3.2v-5.6h0.7v10.6h-0.7V68.3z"/>
<path d="M157.5,61.2c0.9-1.3,2.1-2,3.7-2c1.6,0,2.8,0.5,3.6,1.7c0.7,1,0.8,2,0.8,3.4v5.8H165v-5.7c0-3.1-1.3-4.6-3.8-4.6
	c-1.3,0-2.4,0.5-3.1,1.6c-0.6,0.9-0.6,1.9-0.6,3.2v5.5h-0.6V59.4h0.7V61.2"/>
<path class="st2" d="M157.5,61.2c0.9-1.3,2.1-2,3.7-2c1.6,0,2.8,0.5,3.6,1.7c0.7,1,0.8,2,0.8,3.4v5.8H165v-5.7
	c0-3.1-1.3-4.6-3.8-4.6c-1.3,0-2.4,0.5-3.1,1.6c-0.6,0.9-0.6,1.9-0.6,3.2v5.5h-0.6V59.4h0.7V61.2z"/>
<path d="M177.2,56h0.6v14.1h-0.6v-2.5c-1.3,1.9-2.8,2.8-4.8,2.8c-3.2,0-5.6-2.5-5.6-5.6c0-3,2.3-5.6,5.6-5.6c2.1,0,3.7,1,4.8,2.9V56
	 M172.3,59.7c-2.7,0-4.8,2.2-4.8,5.1c0,2.9,2.3,5.1,4.9,5.1c2.5,0,4.8-2.2,4.8-5C177.2,61.9,174.9,59.7,172.3,59.7z"/>
<path class="st2" d="M177.2,56h0.6v14.1h-0.6v-2.5c-1.3,1.9-2.8,2.8-4.8,2.8c-3.2,0-5.6-2.5-5.6-5.6c0-3,2.3-5.6,5.6-5.6
	c2.1,0,3.7,1,4.8,2.9V56z M172.3,59.7c-2.7,0-4.8,2.2-4.8,5.1c0,2.9,2.3,5.1,4.9,5.1c2.5,0,4.8-2.2,4.8-5
	C177.2,61.9,174.9,59.7,172.3,59.7z"/>
<path d="M185.4,65c0.1,2.9,2.2,4.8,4.9,4.8c2,0,3.6-1.1,4.5-3.1h0.7c-1,2.4-2.9,3.6-5.2,3.6c-3.3,0-5.6-2.6-5.6-5.6
	c0-3.2,2.5-5.6,5.5-5.6c3.3,0,5.6,2.3,5.7,5.9H185.4 M190.4,59.6c-2.6,0-4.6,1.8-4.9,4.7h9.8C194.8,61.4,192.9,59.6,190.4,59.6z"/>
<path class="st2" d="M185.4,65c0.1,2.9,2.2,4.8,4.9,4.8c2,0,3.6-1.1,4.5-3.1h0.7c-1,2.4-2.9,3.6-5.2,3.6c-3.3,0-5.6-2.6-5.6-5.6
	c0-3.2,2.5-5.6,5.5-5.6c3.3,0,5.6,2.3,5.7,5.9H185.4z M190.4,59.6c-2.6,0-4.6,1.8-4.9,4.7h9.8C194.8,61.4,192.9,59.6,190.4,59.6z"/>
<path d="M198.2,61.2c0.9-1.3,2.1-2,3.7-2c1.6,0,2.8,0.5,3.6,1.7c0.7,1,0.8,2,0.8,3.4v5.8h-0.6v-5.7c0-3.1-1.3-4.6-3.8-4.6
	c-1.3,0-2.4,0.5-3.1,1.6c-0.6,0.9-0.6,1.9-0.6,3.2v5.5h-0.6V59.4h0.7V61.2"/>
<path class="st2" d="M198.2,61.2c0.9-1.3,2.1-2,3.7-2c1.6,0,2.8,0.5,3.6,1.7c0.7,1,0.8,2,0.8,3.4v5.8h-0.6v-5.7
	c0-3.1-1.3-4.6-3.8-4.6c-1.3,0-2.4,0.5-3.1,1.6c-0.6,0.9-0.6,1.9-0.6,3.2v5.5h-0.6V59.4h0.7V61.2z"/>
<path d="M213.7,73.6c2.8,0,4.7-2,4.7-5.4c0-0.2,0-0.5,0-0.8c-1.2,1.9-2.7,2.8-4.7,2.8c-3.3,0-5.7-2.5-5.7-5.6c0-3.2,2.4-5.6,5.7-5.6
	c2,0,3.6,0.9,4.7,2.8v-2.5h0.6v8.9c0,3.9-2.1,5.9-5.3,5.9c-2.4,0-4.1-1.1-4.9-3.3h0.7C210.2,72.8,211.5,73.6,213.7,73.6 M213.7,69.7
	c2.5,0,4.8-2.2,4.8-4.9c0-2.8-2.1-5.2-4.8-5.2c-2.8,0-4.9,2.1-4.9,5C208.7,67.7,211.1,69.7,213.7,69.7z"/>
<path class="st2" d="M213.7,73.6c2.8,0,4.7-2,4.7-5.4c0-0.2,0-0.5,0-0.8c-1.2,1.9-2.7,2.8-4.7,2.8c-3.3,0-5.7-2.5-5.7-5.6
	c0-3.2,2.4-5.6,5.7-5.6c2,0,3.6,0.9,4.7,2.8v-2.5h0.6v8.9c0,3.9-2.1,5.9-5.3,5.9c-2.4,0-4.1-1.1-4.9-3.3h0.7
	C210.2,72.8,211.5,73.6,213.7,73.6z M213.7,69.7c2.5,0,4.8-2.2,4.8-4.9c0-2.8-2.1-5.2-4.8-5.2c-2.8,0-4.9,2.1-4.9,5
	C208.7,67.7,211.1,69.7,213.7,69.7z"/>
<path d="M231.1,59.4h0.6v10.6h-0.6v-2.5c-1.3,1.9-2.8,2.8-4.8,2.8c-3.2,0-5.6-2.5-5.6-5.6c0-3,2.3-5.6,5.6-5.6c2.1,0,3.7,1,4.8,2.9
	V59.4 M226.2,59.7c-2.7,0-4.8,2.2-4.8,5.1c0,2.9,2.3,5.1,4.9,5.1c2.5,0,4.8-2.2,4.8-5C231.1,62,229,59.7,226.2,59.7z"/>
<path class="st2" d="M231.1,59.4h0.6v10.6h-0.6v-2.5c-1.3,1.9-2.8,2.8-4.8,2.8c-3.2,0-5.6-2.5-5.6-5.6c0-3,2.3-5.6,5.6-5.6
	c2.1,0,3.7,1,4.8,2.9V59.4z M226.2,59.7c-2.7,0-4.8,2.2-4.8,5.1c0,2.9,2.3,5.1,4.9,5.1c2.5,0,4.8-2.2,4.8-5
	C231.1,62,229,59.7,226.2,59.7z"/>
<path d="M239.1,73.6c2.8,0,4.7-2,4.7-5.4c0-0.2,0-0.5,0-0.8c-1.2,1.9-2.7,2.8-4.7,2.8c-3.3,0-5.7-2.5-5.7-5.6c0-3.2,2.4-5.6,5.7-5.6
	c2,0,3.6,0.9,4.7,2.8v-2.5h0.6v8.9c0,3.9-2.1,5.9-5.3,5.9c-2.4,0-4.1-1.1-4.9-3.3h0.7C235.6,72.8,236.9,73.6,239.1,73.6 M239.1,69.7
	c2.5,0,4.8-2.2,4.8-4.9c0-2.8-2.1-5.2-4.8-5.2c-2.8,0-4.9,2.1-4.9,5C234.1,67.7,236.4,69.7,239.1,69.7z"/>
<path class="st2" d="M239.1,73.6c2.8,0,4.7-2,4.7-5.4c0-0.2,0-0.5,0-0.8c-1.2,1.9-2.7,2.8-4.7,2.8c-3.3,0-5.7-2.5-5.7-5.6
	c0-3.2,2.4-5.6,5.7-5.6c2,0,3.6,0.9,4.7,2.8v-2.5h0.6v8.9c0,3.9-2.1,5.9-5.3,5.9c-2.4,0-4.1-1.1-4.9-3.3h0.7
	C235.6,72.8,236.9,73.6,239.1,73.6z M239.1,69.7c2.5,0,4.8-2.2,4.8-4.9c0-2.8-2.1-5.2-4.8-5.2c-2.8,0-4.9,2.1-4.9,5
	C234.1,67.7,236.4,69.7,239.1,69.7z"/>
<path d="M247.6,57.7h-0.7V56h0.7V57.7z M247.6,70.1h-0.7V59.4h0.7V70.1z"/>
<path class="st2" d="M246.9,57.7 M247.6,57.7h-0.7V56h0.7V57.7z M247.6,70.1h-0.7V59.4h0.7V70.1z"/>
<path d="M250.1,65c0.1,2.9,2.2,4.8,4.9,4.8c2,0,3.6-1.1,4.5-3.1h0.7c-1,2.4-2.9,3.6-5.2,3.6c-3.3,0-5.6-2.6-5.6-5.6
	c0-3.2,2.5-5.6,5.5-5.6c3.3,0,5.6,2.3,5.7,5.9H250.1 M255.1,59.6c-2.6,0-4.6,1.8-4.9,4.7h9.8C259.6,61.4,257.6,59.6,255.1,59.6z"/>
<path class="st2" d="M250.1,65c0.1,2.9,2.2,4.8,4.9,4.8c2,0,3.6-1.1,4.5-3.1h0.7c-1,2.4-2.9,3.6-5.2,3.6c-3.3,0-5.6-2.6-5.6-5.6
	c0-3.2,2.5-5.6,5.5-5.6c3.3,0,5.6,2.3,5.7,5.9H250.1z M255.1,59.6c-2.6,0-4.6,1.8-4.9,4.7h9.8C259.6,61.4,257.6,59.6,255.1,59.6z"/>
<path d="M262.3,59.4h0.7v1.2c0.7-0.9,1.4-1.3,2.4-1.4V60c-1.9,0.2-2.4,1.1-2.4,2.9v7.1h-0.7V59.4"/>
<path class="st2" d="M262.3,59.4h0.7v1.2c0.7-0.9,1.4-1.3,2.4-1.4V60c-1.9,0.2-2.4,1.1-2.4,2.9v7.1h-0.7V59.4z"/>
<polyline points="269.5,59.4 271.5,59.4 271.5,60.1 269.5,60.1 269.5,70.1 268.8,70.1 268.8,60.1 266.8,60.1 266.8,59.4 268.8,59.4 
	268.8,56 269.5,56 269.5,59.4 "/>
<polygon class="st2" points="269.5,59.4 271.5,59.4 271.5,60.1 269.5,60.1 269.5,70.1 268.8,70.1 268.8,60.1 266.8,60.1 266.8,59.4 
	268.8,59.4 268.8,56 269.5,56 "/>
<path d="M0,53.5l17.7-42.4h3l17.7,42.4h-2.2L30,38.8H8.3L2.2,53.5H0 M19.2,12.9l-10,23.9h19.9L19.2,12.9z"/>
<rect x="40.6" y="11.2" width="2.1" height="42.4"/>
<path d="M53.7,20.5c0,0.3,0,0.7,0,1h6.7v2.1h-6.7v29.9h-2.1V23.6h-4.4v-2.1h4.2c0-0.4,0-0.7,0-1.1c0-6,2.9-9.2,8.9-9.8v2.1
	C55.4,13.3,53.7,15.5,53.7,20.5"/>
<path d="M64.9,38.3c0.4,8.8,6.7,14.4,14.7,14.4c6,0,10.9-3.2,13.6-9.2h2.2c-3,7.1-8.6,10.9-15.7,10.9c-9.8,0-16.8-7.7-16.8-16.8
	c0-9.5,7.4-17,16.5-17c9.9,0,16.7,6.9,17,17.7H64.9 M79.7,22.2c-7.7,0-13.8,5.3-14.9,14.1h29.4C93.2,27.4,87.4,22.2,79.7,22.2z"/>
<rect x="101.8" y="11.2" width="2.1" height="42.4"/>
<path d="M140.4,11.2h1.9v42.4h-1.9v-7.6c-3.9,5.8-8.5,8.5-14.6,8.5c-9.6,0-16.7-7.6-16.7-17c0-9.1,6.9-16.7,16.7-16.7
	c6.3,0,11.2,2.9,14.6,8.7V11.2 M125.7,22.3c-8,0-14.5,6.6-14.5,15.2c0,8.8,7,15.2,14.8,15.2c7.4,0,14.3-6.7,14.3-14.9
	C140.3,29,133.6,22.3,125.7,22.3z"/>
<rect x="251.5" y="22.2" class="st3" width="31.7" height="7.8"/>
<rect x="251.5" y="30" class="st0" width="31.7" height="3.9"/>
<rect x="251.5" y="33.9" class="st3" width="31.7" height="7.8"/>
<rect x="251.5" y="41.7" class="st4" width="31.7" height="3.9"/>
<rect x="251.5" y="45.6" class="st5" width="31.7" height="7.8"/>
<rect x="145.9" y="22.2" class="st0" width="31.7" height="7.8"/>
<rect x="145.9" y="22.2" class="st0" width="31.7" height="19.5"/>
<rect x="145.9" y="45.6" class="st3" width="31.7" height="7.8"/>
<rect x="180.7" y="22.3" class="st6" width="31.7" height="31.2"/>
<path class="st3" d="M212.4,37.9c0,8.6-7.1,15.6-15.8,15.6c-8.8,0-15.9-7-15.9-15.6s7.1-15.6,15.9-15.6
	C205.3,22.3,212.4,29.3,212.4,37.9"/>
<path class="st5" d="M200.5,37.9c0,2.2-1.8,3.9-4,3.9c-2.2,0-4-1.7-4-3.9c0-2.2,1.8-3.9,4-3.9C198.7,34,200.5,35.8,200.5,37.9"/>
<rect x="192.6" y="34" class="st6" width="4" height="3.9"/>
<rect x="165.7" y="30" class="st6" width="4" height="3.9"/>
<rect x="145.9" y="30" class="st6" width="4" height="3.9"/>
<rect x="215.9" y="22.3" class="st6" width="15.9" height="31.2"/>
<rect x="231.7" y="22.3" class="st3" width="15.9" height="31.2"/>
<rect x="227.8" y="34" class="st0" width="4" height="3.9"/>
<rect x="243.6" y="26.2" class="st0" width="4" height="3.9"/>
<rect x="235.7" y="34" class="st0" width="4" height="3.9"/>
<rect x="239.6" y="22.3" class="st0" width="4" height="3.9"/>
<rect x="223.8" y="37.6" class="st0" width="4" height="3.9"/>
<rect x="231.7" y="26.2" class="st0" width="4" height="3.9"/>
<rect x="215.9" y="49.6" class="st5" width="4" height="3.9"/>
<rect x="239.6" y="30.1" class="st0" width="4" height="3.9"/>
<rect x="188.6" y="30.1" class="st0" width="4" height="3.9"/>
<rect x="145.9" y="37.9" class="st6" width="31.7" height="7.8"/>
<path class="st5" d="M170,53.4c0-4.2-3.5-7.6-7.8-7.6c-4.3,0-7.8,3.4-7.8,7.6H170"/>
<rect x="243.6" y="30.1" class="st6" width="4" height="3.9"/>
<rect x="259.2" y="30" class="st6" width="4" height="3.9"/>
<rect x="235.6" y="26.2" class="st6" width="4" height="3.9"/>
<rect x="219.6" y="33.3" class="st6" width="4" height="3.9"/>
<rect x="219.9" y="33.7" class="st3" width="4" height="3.9"/>
<rect x="165.7" y="37.9" class="st4" width="11.9" height="3.9"/>
</svg>
