<?xml version="1.0" encoding="utf-8"?>
<!-- Generator: Adobe Illustrator 24.0.3, SVG Export Plug-In . SVG Version: 6.00 Build 0)  -->
<svg version="1.1" id="Ebene_1" xmlns="http://www.w3.org/2000/svg" xmlns:xlink="http://www.w3.org/1999/xlink" x="0px" y="0px"
	 viewBox="0 0 88.1 34.2" style="enable-background:new 0 0 88.1 34.2;" xml:space="preserve">
<style type="text/css">
	.st0{fill:url(#SVGID_1_);}
	.st1{fill:#E08B2D;}
	.st2{fill:#185A85;}
</style>
<g>
	<g>
		<linearGradient id="SVGID_1_" gradientUnits="userSpaceOnUse" x1="19.4483" y1="34.6883" x2="66.8378" y2="-12.7011">
			<stop  offset="0" style="stop-color:#209BC9"/>
			<stop  offset="0.5" style="stop-color:#209BC9"/>
			<stop  offset="1" style="stop-color:#1D8DB9"/>
		</linearGradient>
		<path class="st0" d="M1.8,9H0.3l0.2-2h1.2V4.9C1.8,4,2,3.3,2.5,2.8S3.8,2,4.8,2c0.5,0,1.1,0.1,1.6,0.2l-0.2,2
			C6,4.1,5.7,4.1,5.4,4.1c-0.8,0-1.2,0.4-1.2,1.2V7h2.2v2H4.2v8H1.8V9z M9.7,16.5c-0.8-0.5-1.4-1.1-1.8-1.9
			c-0.4-0.8-0.6-1.7-0.6-2.6c0-0.9,0.2-1.8,0.6-2.6C8.2,8.6,8.8,8,9.5,7.5c0.7-0.5,1.6-0.7,2.6-0.7c0.9,0,1.7,0.2,2.4,0.6
			C15.2,7.8,15.6,8.3,16,9s0.5,1.4,0.5,2.2c0,0.4-0.1,0.9-0.2,1.4H9.8c0.1,0.9,0.5,1.5,1,2c0.6,0.4,1.2,0.6,2,0.6
			c1.1,0,2.1-0.3,3-0.8l0.1,2.1c-0.4,0.2-0.9,0.4-1.5,0.5c-0.6,0.1-1.2,0.2-1.9,0.2C11.5,17.2,10.5,17,9.7,16.5z M13.9,10.9
			c0-0.5-0.1-1-0.4-1.4s-0.7-0.6-1.4-0.6S11,9.1,10.7,9.4c-0.4,0.4-0.6,0.8-0.8,1.4C9.9,10.9,13.9,10.9,13.9,10.9z M18.2,7h2.3
			l0.1,1.1c0.3-0.3,0.7-0.6,1.1-0.9s0.9-0.4,1.5-0.4c0.2,0,0.3,0,0.4,0l-0.2,2.4c-0.3-0.1-0.5-0.1-0.9-0.1c-0.4,0-0.8,0.1-1.1,0.3
			s-0.6,0.4-0.7,0.7V17h-2.5V7z M24.8,3h2.5v2.5h-2.5V3z M24.8,7h2.5v10h-2.5V7z M31.4,16.5c-0.8-0.5-1.4-1.1-1.8-1.9
			c-0.4-0.8-0.6-1.7-0.6-2.6c0-0.9,0.2-1.8,0.6-2.6c0.4-0.8,0.9-1.4,1.7-1.8c0.7-0.5,1.6-0.7,2.6-0.7c0.9,0,1.7,0.2,2.4,0.6
			c0.6,0.4,1.1,0.9,1.5,1.6s0.5,1.4,0.5,2.2c0,0.4-0.1,0.9-0.2,1.4h-6.5c0.1,0.9,0.5,1.5,1,2c0.6,0.4,1.2,0.6,2,0.6
			c1.1,0,2.1-0.3,3-0.8l0.1,2.1c-0.4,0.2-0.9,0.4-1.5,0.5s-1.2,0.2-1.8,0.2C33.2,17.2,32.2,17,31.4,16.5z M35.6,10.9
			c0-0.5-0.1-1-0.4-1.4s-0.7-0.6-1.4-0.6s-1.1,0.2-1.5,0.5c-0.4,0.4-0.6,0.8-0.8,1.4C31.6,10.9,35.6,10.9,35.6,10.9z M47.7,8.1
			c0.6,0.8,1,1.9,1,3.3V17h-2.5v-5.4c0-0.9-0.2-1.6-0.5-2.1c-0.3-0.4-0.8-0.7-1.5-0.7c-0.8,0-1.4,0.3-1.9,0.9V17h-2.5V7h2.3l0,0.7
			c0.8-0.6,1.7-0.9,2.7-0.9C46.1,6.8,47.1,7.3,47.7,8.1z M58.6,7.5c0.7,0.5,1.2,1.1,1.5,1.9s0.5,1.7,0.5,2.6s-0.2,1.8-0.5,2.6
			s-0.9,1.4-1.5,1.9s-1.5,0.7-2.4,0.7c-0.6,0-1.1-0.1-1.5-0.2c-0.4-0.1-0.8-0.3-1.2-0.6v5.4h-2.5V7h2l0.3,0.9
			c0.4-0.4,0.9-0.6,1.3-0.8s1-0.3,1.6-0.3C57.1,6.8,57.9,7.1,58.6,7.5z M57.5,14.3c0.4-0.6,0.6-1.3,0.6-2.3s-0.2-1.7-0.6-2.3
			c-0.4-0.6-1-0.9-1.7-0.9c-0.8,0-1.4,0.3-1.9,0.8c-0.4,0.6-0.6,1.3-0.6,2.3c0,1,0.2,1.7,0.6,2.3s1,0.8,1.9,0.8
			C56.5,15.2,57,14.9,57.5,14.3z M62.4,16.4c-0.6-0.5-0.8-1.3-0.8-2.2c0-0.9,0.3-1.6,0.9-2.1c0.6-0.5,1.4-0.9,2.2-1.1
			s1.7-0.3,2.5-0.4c0-0.6-0.2-1-0.4-1.3C66.5,9.1,66,9,65.4,9C65,9,64.5,9,64.1,9.2s-0.9,0.3-1.5,0.6l-0.2-2
			c1.2-0.6,2.4-0.9,3.6-0.9c1.2,0,2.1,0.3,2.7,1s0.9,1.7,0.9,3.1v2.7c0,0.5,0,0.9,0.1,1.1s0.1,0.4,0.2,0.4c0.1,0.1,0.3,0.1,0.6,0.1
			h0.3l-0.2,2h-0.9c-0.5,0-1-0.1-1.4-0.3c-0.4-0.2-0.7-0.5-0.9-0.9c-0.3,0.4-0.8,0.6-1.3,0.9s-1.1,0.3-1.8,0.3
			C63.7,17.2,63,16.9,62.4,16.4z M66.4,15.1c0.3-0.1,0.6-0.3,0.8-0.5v-2.3c-0.8,0-1.5,0.2-2.1,0.5c-0.6,0.3-0.9,0.7-0.9,1.3
			c0,0.4,0.1,0.7,0.3,0.9c0.2,0.2,0.6,0.3,1,0.3C65.8,15.3,66.1,15.2,66.4,15.1z M73.4,17c-0.5-0.1-1.1-0.3-1.6-0.6l0.2-2.1
			c0.6,0.3,1.1,0.6,1.6,0.8c0.5,0.2,1,0.2,1.5,0.2c1,0,1.5-0.3,1.5-1c0-0.4-0.1-0.6-0.4-0.8c-0.3-0.2-0.7-0.4-1.4-0.7
			c-1-0.4-1.7-0.8-2.2-1.2s-0.7-1.1-0.7-1.9c0-0.9,0.3-1.6,1-2.1s1.6-0.8,2.7-0.8s2.2,0.3,3.1,0.8l-0.2,2.1c-0.5-0.3-1-0.6-1.4-0.8
			s-0.9-0.3-1.4-0.3c-0.4,0-0.8,0.1-1,0.3c-0.2,0.2-0.3,0.4-0.3,0.7c0,0.3,0.1,0.5,0.2,0.6s0.3,0.3,0.6,0.4c0.3,0.1,0.7,0.3,1.3,0.5
			c1,0.4,1.7,0.8,2.1,1.2s0.6,1,0.6,1.8c0,0.9-0.3,1.7-1,2.2c-0.7,0.5-1.6,0.8-2.9,0.8C74.5,17.2,73.9,17.1,73.4,17z M81.8,17
			c-0.5-0.1-1.1-0.3-1.6-0.6l0.2-2.1c0.6,0.3,1.1,0.6,1.6,0.8c0.5,0.2,1,0.2,1.5,0.2c1,0,1.5-0.3,1.5-1c0-0.4-0.1-0.6-0.4-0.8
			c-0.3-0.2-0.7-0.4-1.4-0.7c-1-0.4-1.7-0.8-2.2-1.2s-0.7-1.1-0.7-1.9c0-0.9,0.3-1.6,1-2.1s1.6-0.8,2.7-0.8s2.2,0.3,3.1,0.8
			l-0.2,2.1c-0.5-0.3-1-0.6-1.4-0.8s-0.9-0.3-1.4-0.3c-0.4,0-0.8,0.1-1,0.3c-0.2,0.2-0.3,0.4-0.3,0.7c0,0.3,0.1,0.5,0.2,0.6
			s0.3,0.3,0.6,0.4c0.3,0.1,0.7,0.3,1.3,0.5c1,0.4,1.7,0.8,2.1,1.2s0.6,1,0.6,1.8c0,0.9-0.3,1.7-1,2.2c-0.7,0.5-1.6,0.8-2.9,0.8
			C83,17.2,82.4,17.1,81.8,17z"/>
	</g>
</g>
<g>
	<path class="st1" d="M30.7,31.3h2.6V34h-2.6C30.7,34,30.7,31.3,30.7,31.3z"/>
	<path class="st2" d="M37.2,33.5c-0.8-0.5-1.4-1.1-1.8-1.9C35,30.9,34.8,30,34.8,29c0-0.9,0.2-1.8,0.6-2.6c0.4-0.8,1-1.4,1.8-1.9
		c0.8-0.5,1.7-0.7,2.7-0.7s2,0.2,2.7,0.7c0.8,0.5,1.4,1.1,1.8,1.9s0.6,1.7,0.6,2.6c0,0.9-0.2,1.8-0.6,2.6c-0.4,0.8-1,1.4-1.8,1.9
		s-1.7,0.7-2.7,0.7C38.9,34.2,38,34,37.2,33.5z M41.8,31.3c0.5-0.6,0.7-1.3,0.7-2.3c0-1-0.2-1.7-0.7-2.3s-1.1-0.9-1.9-0.9
		s-1.5,0.3-1.9,0.9s-0.7,1.4-0.7,2.3c0,0.9,0.2,1.7,0.7,2.3s1.1,0.9,1.9,0.9S41.4,31.9,41.8,31.3z"/>
	<path class="st2" d="M54.6,25.1c0.6,0.8,1,1.9,1,3.3V34h-2.5v-5.4c0-0.9-0.2-1.6-0.5-2.1c-0.3-0.4-0.8-0.7-1.5-0.7
		c-0.8,0-1.4,0.3-1.9,0.9V34h-2.5V24h2.3l0,0.7c0.8-0.6,1.7-0.9,2.7-0.9C53.1,23.9,54,24.3,54.6,25.1z"/>
	<path class="st2" d="M58.5,33.5c-0.4-0.5-0.6-1.1-0.6-1.9V19h2.5v11.6c0,0.5,0,0.9,0.1,1.1c0.1,0.2,0.2,0.4,0.3,0.4
		s0.4,0.1,0.8,0.1l-0.2,2h-0.9C59.5,34.2,58.9,34,58.5,33.5z"/>
	<path class="st2" d="M63.1,20h2.5v2.5h-2.5C63.1,22.5,63.1,20,63.1,20z M63.1,24h2.5v10h-2.5C63.1,34,63.1,24,63.1,24z"/>
	<path class="st2" d="M75.7,25.1c0.6,0.8,1,1.9,1,3.3V34h-2.5v-5.4c0-0.9-0.2-1.6-0.5-2.1c-0.3-0.4-0.8-0.7-1.5-0.7
		c-0.8,0-1.4,0.3-1.9,0.9V34h-2.5V24h2.3l0,0.7c0.8-0.6,1.7-0.9,2.7-0.9C74.2,23.9,75.1,24.3,75.7,25.1z"/>
	<path class="st2" d="M80.8,33.5c-0.8-0.5-1.4-1.1-1.8-1.9c-0.4-0.8-0.6-1.7-0.6-2.6c0-0.9,0.2-1.8,0.6-2.6c0.4-0.8,0.9-1.4,1.7-1.9
		s1.6-0.7,2.6-0.7c0.9,0,1.7,0.2,2.4,0.6c0.6,0.4,1.1,0.9,1.5,1.6s0.5,1.4,0.5,2.2c0,0.4-0.1,0.9-0.2,1.4h-6.5c0.1,0.9,0.5,1.5,1,2
		c0.6,0.4,1.2,0.6,2,0.6c1.1,0,2.1-0.3,3-0.8l0.1,2.1c-0.4,0.2-0.9,0.4-1.5,0.5c-0.6,0.1-1.2,0.2-1.8,0.2
		C82.6,34.2,81.6,34,80.8,33.5z M85,27.9c0-0.5-0.1-1-0.4-1.4s-0.7-0.6-1.4-0.6s-1.1,0.2-1.5,0.5c-0.4,0.4-0.6,0.8-0.8,1.4L85,27.9
		L85,27.9z"/>
</g>
</svg>
