<?xml version="1.0" encoding="utf-8"?>
<!-- Generator: Adobe Illustrator 24.1.0, SVG Export Plug-In . SVG Version: 6.00 Build 0)  -->
<svg version="1.1" id="Layer_1" xmlns="http://www.w3.org/2000/svg" xmlns:xlink="http://www.w3.org/1999/xlink" x="0px" y="0px"
	 viewBox="0 0 378.1 112.7" style="enable-background:new 0 0 378.1 112.7;" xml:space="preserve">
<style type="text/css">
	.st0{fill:#DA2128;}
	.st1{fill:#2DA44A;}
	.st2{fill:#0066A6;}
</style>
<path d="M21.6,17.9c-1.7,0-2.2,0.1-3,0.2c-0.8,2.9-1.7,6.2-2.2,8.2c-0.5,2.1-0.9,4-1.4,6.1h2.7c3.4,0,7.4-2.5,8.6-7.5
	C27.2,21,26.3,17.9,21.6,17.9 M16.5,36.8c-1.1,0-1.9,0.1-2.6,0.1c-0.4,1.7-0.8,3.3-1.4,5.8c-0.9,3.7-1.8,8.3-2.3,10.4
	c1.1,0.1,1.9,0.1,3.2,0.1c3.5,0,7.2-2.9,8.4-8.1C23.2,39.5,21.3,36.8,16.5,36.8z M10,14.5c0,0,2.8,0.3,4.8,0.3
	c3.4,0,7.4-0.3,10.8-0.3c7.1,0,11.3,2.7,9.8,9.2C33.8,30.1,26.9,34,23,34.6c3.6,0.2,10,2.8,8.3,10c-2,8.5-9.6,11.9-16.6,11.9
	c-3.1,0-13.4-0.1-14.7,0C1.6,51.2,8.5,20.2,10,14.5z"/>
<path d="M50.4,41c-3.8,1.9-8.2,1.6-9.6,7.6c-0.7,2.9,0.2,4.5,2.3,4.5c2.6,0,4.9-2,5.8-5.9C49.7,43.8,50.1,42.4,50.4,41 M38.6,31.1
	C42.5,28.4,47,27,50.7,27c6.3,0,10.2,2.7,8.6,9.7c-1.2,5-2.4,9.2-3.4,13.5c-0.9,3.7,0.1,4.1,2.5,4.1l-0.3,1.4
	c-2.5,1.2-4,1.6-5.8,1.6c-2.9,0-4.3-1.7-4.6-4.3c-2.4,2.5-5.1,4.3-8.7,4.3c-6,0-7.5-4-6.6-7.8c1.2-5.2,5.2-7.4,10.8-8.7
	c7-1.6,7.7-2.1,8.2-4.2c0.7-2.8-0.9-5.2-4.5-5.2c-2.7,0-6.3,1.6-7.9,3.3h-0.4L38.6,31.1z"/>
<path d="M72.7,53.6c3.2,0,6.4-3.4,8.4-11.9c1.7-7.4,0.3-10.6-2.8-10.6c-2.5,0-6,2.6-8.2,11.6C68.2,50.8,70,53.6,72.7,53.6
	 M90.4,35.9c-1.8,7.8-3.1,13.8-4.4,20.5c-1-0.2-7.6-0.2-8.4,0c0.3-0.5,1.5-4.3,1.6-4.9l-0.1-0.1c-2.3,3.4-5.3,5.8-9.9,5.8
	c-8,0-9.7-7-7.7-15.4c2-8.5,8.6-14.8,15-14.8c3.4,0,6.1,1.9,6.9,4.4h0.1c1.7-7.1,2.1-10.4,3.4-17.1c1,0.2,2.7,0.3,4.4,0.3
	c1.7,0,3.5-0.1,4.5-0.3c-1.9,6.7-2.7,10-4.5,17.8L90.4,35.9z"/>
<path d="M129.7,17.3c-8.3,0-15.1,8.4-17.6,18.8c-3.1,12.9,1.8,17.4,8.6,17.4c7.3,0,15.1-6.1,18.2-19.3
	C141.4,23.7,137.5,17.3,129.7,17.3 M130.7,13.8c12.9,0,21.3,7,17.9,21.7c-2.8,12-14.8,21.8-28.3,21.8c-12.8,0-21.6-6.5-18-21.7
	C105.1,23.6,116.6,13.8,130.7,13.8z"/>
<path d="M173.8,53.6c3.3,0,6.6-3.4,8.7-11.9c1.8-7.4,0.3-10.6-2.9-10.6c-2.6,0-6.2,2.6-8.4,11.6C169.2,50.8,171,53.6,173.8,53.6
	 M192.1,35.9c-1.9,7.8-3.2,13.8-4.5,20.5c-1-0.2-7.9-0.2-8.7,0c0.3-0.5,1.6-4.3,1.7-4.9l-0.1-0.1c-2.4,3.4-5.5,5.8-10.2,5.8
	c-8.3,0-10-7-7.9-15.4c2.1-8.5,8.9-14.8,15.5-14.8c3.6,0,6.3,1.9,7.1,4.4h0.1c1.7-7.1,2.2-10.4,3.5-17.1c1,0.2,2.8,0.3,4.5,0.3
	c1.8,0,3.6-0.1,4.7-0.3c-1.9,6.7-2.8,10-4.7,17.8L192.1,35.9z"/>
<path d="M213.1,39.4c1.3-5.9,1-9.8-2.1-9.8c-3.6,0-6.1,5.2-7.3,9.8H213.1 M203,42.1c-1.6,6.4-0.2,11.3,5.5,11.3
	c2.8,0,5.6-0.9,8.2-2.7l0.6,0.5l-2.2,3.3c-2.4,1.5-5.4,2.7-10,2.7c-8,0-13.8-4.6-11.2-15c2.5-10.3,9.8-15.3,18-15.3
	c8,0,11.3,4.9,9.3,13.2c-0.2,1-0.4,1.5-0.5,2H203z"/>
<path d="M224.4,49c0.4,2.5,1.8,4.9,6.1,4.9c2.8,0,4.9-1.7,5.3-3.4c1.3-5.4-13.2-3.6-10.7-14c1.6-6.7,8-9.6,13.1-9.6
	c3.4,0,5.7,1,8,2.8c-1.1,1.5-2.1,3.5-2.8,5.2h-1.7c0-1.9-1-5-4.9-5c-2.5,0-4.7,1.4-5.2,3.4c-1.4,5.8,13.7,3.3,11.1,13.8
	c-1.7,6.8-8.2,10-14.3,10c-3.6,0-6.4-1.4-7.8-2.6c1-1.9,1.7-3.8,2.3-5.7H224.4"/>
<path d="M249.2,32.1c1.9-7.8,2.4-11.1,3.7-17.8c1,0.2,2.8,0.3,4.5,0.3c1.8,0,3.6-0.1,4.7-0.3c-2,6.7-2.8,10-4.7,17.8l-0.9,3.9
	c-1.9,7.8-3.2,13.8-4.5,20.5c-1-0.2-8.1-0.2-9.2,0c2-6.7,3.6-12.8,5.5-20.5L249.2,32.1"/>
<path d="M276.4,29.6c-3.7,0-7.1,4.3-9.3,13.2c-1.6,6.7-1.4,11.7,3.2,11.7c3.8,0,7.1-4.7,9.3-14C281.2,33.8,280.5,29.6,276.4,29.6
	 M277,27c9.5,0,13.7,5.6,11.5,14.5c-2.4,9.7-10.1,15.7-18.9,15.7c-7.3,0-14.1-3.9-11.5-14.4C260.6,32.2,269.2,27,277,27z"/>
<path d="M310,39.4c1.3-5.9,1-9.8-2.1-9.8c-3.6,0-6.1,5.2-7.3,9.8H310 M299.9,42.1c-1.6,6.4-0.2,11.3,5.5,11.3c2.8,0,5.6-0.9,8.2-2.7
	l0.6,0.5l-2.2,3.3c-2.4,1.5-5.4,2.7-10,2.7c-8,0-13.8-4.6-11.2-15c2.5-10.3,9.8-15.3,18-15.3c8,0,11.3,4.9,9.3,13.2
	c-0.2,1-0.4,1.5-0.5,2H299.9z"/>
<path d="M153,32.1c1.9-7.8,2.4-11.1,3.7-17.8c1,0.2,2.8,0.3,4.5,0.3c1.8,0,3.6-0.1,4.7-0.3c-1.9,6.7-2.8,10-4.7,17.8l-0.9,3.9
	c-1.9,7.8-3.2,13.8-4.5,20.5c-1-0.2-8.1-0.2-9.2,0c2-6.7,3.6-12.8,5.5-20.5L153,32.1"/>
<path class="st0" d="M288.6,17.8c-1.7,2.5-0.9,7.4,2.2,8c3.8,0.7,4.8-0.6,7.4-2.2c4.2-2.4,7.8-4.8,15.5-5.4
	c9.3-0.7,15.4,5.1,17.5,10.9c1,2.7-0.7,0.8,2-0.7c2.7-1.5,6.4,11.4,6.8,7.7c2.2-18.3-12.1-28.7-26.4-29
	C302,6.8,291.3,13.9,288.6,17.8"/>
<path class="st0" d="M233.4,67.8l1.9,0.2c-0.3,0-0.7,0.1-1,0.2C233.9,68.3,233.7,68,233.4,67.8"/>
<polyline class="st0" points="237.1,68.2 237.4,68.2 237.7,68.3 237.1,68.2 "/>
<path class="st0" d="M240.4,68.8c-0.6,0-1.2-0.1-1.7-0.2C239.2,68.6,239.7,68.6,240.4,68.8"/>
<path class="st0" d="M237.7,68.7c0.2-0.1,0.3-0.2,0-0.4l0,0l1,0.2L237.7,68.7"/>
<path class="st0" d="M237.7,68.7c-0.2,0.1-0.5,0.2-0.7,0.2L237.7,68.7"/>
<path class="st0" d="M238.2,71.9c0.3,0.1,0.3-0.7,1-0.5c1.5,0.4,2.9,1,4.3,1.1c0.7,0.3,1.8-0.6,2.5-0.3c1.5,0.4,5.5,1.9,3.1,1.7
	c-3.6-0.5-5.9-0.9-9.1-1.5c-2.6-0.7-5-1.4-7.6-2c-0.7-0.1-1.4-0.2-2.2-0.2c0.9,0,1.9,0,2.9,0C234.5,70.1,236.1,71.4,238.2,71.9"/>
<path class="st0" d="M219.2,66.2c0.3,0.2,0.9,0.5,0.9,0.5c1.6-0.4,3.1,0.1,4.6,0.6l-0.8,0.3c-0.9-0.2-1-0.4-0.1-0.5
	c-1.9,0.2-3.6,0-5.4-0.3C218.7,66.5,218.7,66.2,219.2,66.2"/>
<polyline class="st0" points="217.5,66.5 218.5,66.7 218.5,66.8 217.5,66.5 217.5,66.5 "/>
<path class="st0" d="M247.4,70.3c4.5,0.4,8.7,0.7,12.8,0.7c0.3,0.2,0.5,0.4,1,0.3c0.3-0.1,0.7-0.2,1-0.3l1.8,0l0.6,0.1l0,0
	c0.3,0.1,0.2,0.2,0,0.4l-0.6,0.3c0.1-0.1,0.4-0.2,0.6-0.3c0.3-0.1,0.6-0.2,1-0.2c0.5,0.1,1.1,0.1,1.7,0c-0.7-0.1-1.2-0.1-1.7,0
	l-1-0.1l-0.3-0.1l4.1-0.1c0.3,0,0.6,0,0.9,0.1c1,0.1,2,0.2,2.6-0.2l0.7-0.1l-0.1,0.1l0.3-0.1l3.1-0.2c0.7,0.2,1.4,0.3,2.1,0.4
	c0,0,0.4-0.3,0.7-0.5c0.3,0.2,0.7,0.3,1.2,0.3c-0.5,0.3-1,0.6-1.5,0.8c-0.7,0.5-1.6-0.7-2.4,0.1c0.8-0.8,1.7,0.4,2.4-0.1
	c0.5-0.2,1-0.5,1.5-0.8c1,0.1,2.2-0.2,3.2-0.7c-1.3-0.2-2.3,0.2-3.2,0.7c-0.5,0-0.9-0.1-1.2-0.3c-0.2,0.2-0.7,0.5-0.7,0.5
	c-0.7-0.1-1.4-0.2-2.1-0.4c2-0.2,4-0.5,6.1-0.7c13.1-1.9,25.4-5,36.5-12.8c5.9-4.2,10.4-9.9,12.3-16c1.9-6,1.5-12.2-1.6-16.9
	c-3-4.7-8.8-7.3-14.6-6.3c-4.4,0.2-12.9,2.8-17.1,5.4c-6.3,2.3-5.6-2.5-5.4-3c2.1-5,5.7-5.8,14.5-10c-5.9,2.8,4.7,0.1,11.3-0.7
	c4.9-1.1,11.6,1.2,15.9,6.4c4.5,5,6.3,12.1,6.4,18.2c0.1,3.1-0.6,6.4-1.9,9.8c-3,9.1-9.9,15.5-17,19.9c-7.2,4.4-15.2,7.3-23.8,9.5
	c-4.6,1.1-8.7,0.9-12.6,1c-2.8,0.3-5.8,0.8-8,1c-3.6,0.1-6.7,0-9.6-0.5c3.3,0.2,5.7,0.3,9.3,0.3c2.4-0.1-1.8-1-3.4-1.2
	c-0.7-0.2-1.7,0.8-2.4,0.7c-1.5,0.1-2.9-0.4-4.5-0.6c-0.7-0.2-0.6,0.7-0.9,0.6c-2.2-0.2-3.8-1.4-5.2-1.2c-1.1,0.1-2,0.2-2.9,0.3
	c-0.6,0-1.2,0-1.8,0l-1.2-0.3c0.3-0.2,0.5-0.6,0.6-0.9c-0.6,0-1.4,0.1-2,0.2c0.6,0,1.4-0.1,2-0.2c-0.1,0.3-0.3,0.6-0.6,0.9
	c-2.8-0.7-6.1-1.4-9-2.1l0-0.1c1.8,0.2,3.5,0.4,5.4,0c-0.8,0.1-0.7,0.4,0.2,0.5l0.7-0.4c-1.6-0.3-3.1-0.7-4.7-0.3c0,0-0.7-0.3-1-0.4
	c-0.5,0.1-0.5,0.3-0.6,0.6l-1-0.2C245,70.7,247.4,70.3,247.4,70.3"/>
<path class="st0" d="M265.6,71.3c-0.2,0-0.5-0.1-0.9-0.1l3.4-0.1C267.6,71.5,266.6,71.4,265.6,71.3"/>
<path class="st1" d="M199.9,67.9l2,0.4c-0.3,0-0.7,0-1,0.1C200.4,68.4,200.2,68.2,199.9,67.9"/>
<polyline class="st1" points="203.7,68.7 204,68.7 204.3,68.9 203.7,68.7 "/>
<path class="st1" d="M207,69.6c-0.6-0.1-1.2-0.2-1.7-0.4C205.8,69.2,206.4,69.4,207,69.6"/>
<path class="st1" d="M204.3,69.2c0.2-0.1,0.4-0.2,0-0.4l0,0l1,0.3C204.9,69.2,204.6,69.2,204.3,69.2"/>
<path class="st1" d="M204.3,69.2c-0.2,0.1-0.6,0.1-0.7,0.2L204.3,69.2"/>
<path class="st1" d="M204.5,72.4c0.3,0.2,0.4-0.7,1.1-0.4c1.5,0.6,2.8,1.2,4.3,1.6c0.6,0.3,1.9-0.4,2.5,0c1.5,0.6,5.4,2.5,3,2
	c-3.6-0.9-5.9-1.6-9.1-2.4c-2.6-0.9-5-1.9-7.6-2.8c-0.7-0.2-1.5-0.3-2.2-0.4c1,0.1,1.9,0.2,3,0.3C200.9,70.3,202.4,71.7,204.5,72.4"
	/>
<path class="st1" d="M185.5,65.1c0.3,0.2,0.9,0.5,0.9,0.5c1.6-0.3,3.2,0.4,4.7,1l-0.8,0.3c-0.9-0.3-0.9-0.5-0.1-0.5
	c-2,0.1-3.7-0.2-5.5-0.8C185,65.4,185,65.1,185.5,65.1"/>
<polyline class="st1" points="183.8,65.3 184.8,65.6 184.7,65.7 183.7,65.3 183.8,65.3 "/>
<path class="st1" d="M214,71.9c4.5,1,8.8,1.8,12.9,2.4c0.3,0.2,0.5,0.5,0.9,0.4c0.4-0.1,0.7-0.1,1-0.1l1.8,0.3l0.6,0.2l0,0
	c0.3,0.2,0.2,0.3,0,0.4l-0.7,0.2c0.1-0.1,0.5-0.1,0.7-0.2c0.3-0.1,0.6-0.1,1-0.1c0.5,0.1,1.1,0.3,1.7,0.3c-0.7-0.2-1.2-0.3-1.7-0.3
	l-1-0.3l-0.3-0.1l4.2,0.6c0.3,0.1,0.6,0.1,0.9,0.2c1,0.3,2,0.6,2.7,0.3l0.7,0.1l-0.2,0.1l0.3,0l3.2,0.4c0.7,0.3,1.3,0.6,2,0.8
	c0,0,0.5-0.2,0.8-0.3c0.3,0.3,0.6,0.5,1.1,0.6c-0.6,0.2-1.2,0.4-1.7,0.5c-0.8,0.3-1.4-1.1-2.4-0.4c1-0.7,1.6,0.7,2.4,0.4
	c0.5-0.1,1.1-0.3,1.7-0.5c1,0.3,2.3,0.3,3.4,0.1c-1.2-0.6-2.4-0.4-3.4-0.1c-0.5-0.1-0.9-0.3-1.1-0.6c-0.3,0.1-0.8,0.3-0.8,0.3
	c-0.7-0.2-1.4-0.5-2-0.8l6.3,0.7c13.8,1.4,26.4,2.8,40.7,3c7.7,0,15.2-0.4,22.4-1.2c14.3-1.7,27.6-2.4,40.9-8.4
	c5.1-2.1,14.6-5.3,19.4-7.5c6.9-1.8,5.4,3.1,5.1,3.4c-2.7,4.8-6.6,4.9-14.8,9.8c5.6-3.2-5-0.2-10.2,3.3c-7.7,5.6-20.7,5.1-31.2,6.8
	c-2.7,0.4-5.5,0.5-8.7,0.7c-16.7,1.9-32.1-0.3-49.4-1.9c-4.6-0.5-8.5-1.8-12.2-2.8c-2.8-0.5-5.8-0.6-8.1-0.9
	c-3.6-0.6-6.6-1.4-9.4-2.3c3.2,0.7,5.6,1.3,9.2,2.1c2.4,0.4-1.5-1.4-3.1-1.9c-0.7-0.3-1.9,0.5-2.6,0.2c-1.5-0.3-2.8-0.9-4.4-1.4
	c-0.7-0.3-0.7,0.6-1,0.4c-2.2-0.6-3.6-2-5.1-2c-1.1-0.1-2.1-0.1-3-0.2c-0.6-0.1-1.2-0.1-1.8-0.3l-1.1-0.4c0.4-0.2,0.5-0.5,0.7-0.8
	c-0.6-0.1-1.4,0-2-0.1c0.6,0.1,1.4,0,2,0.1c-0.2,0.3-0.3,0.6-0.7,0.8c-2.8-1-6-2.2-9-3.2l0.1-0.1c1.8,0.5,3.5,0.7,5.5,0.6
	c-0.8,0-0.8,0.3,0.1,0.5l0.8-0.3c-1.6-0.6-3.1-1.1-4.7-0.8c0,0-0.6-0.3-1-0.5c-0.5,0-0.6,0.3-0.7,0.5l-1-0.3
	C211.6,72,214,71.9,214,71.9"/>
<path class="st1" d="M232.5,75.4c-0.2-0.1-0.5-0.1-0.9-0.2l3.5,0.5C234.4,76,233.4,75.7,232.5,75.4"/>
<path class="st1" d="M369.7,63c-29.2,16.7-71.3,17-80.8,17.4l5.5,7.3c13.6,0.3,51.4,0.3,80.5-15.4c3.4-1.8,4.5-5.7,3.2-8.1
	C376.8,61.9,373,61.1,369.7,63"/>
<path class="st2" d="M57.8,81l3.2-1c-0.6,0.1-1.1,0.2-1.7,0.2C58.6,80.3,58.3,80.6,57.8,81"/>
<polyline class="st2" points="64.1,79 64.7,78.9 65.1,78.7 64.1,79 "/>
<path class="st2" d="M69.7,77.2c-1,0.2-2,0.5-2.9,0.8C67.6,77.8,68.6,77.6,69.7,77.2"/>
<path class="st2" d="M65.1,78.3c0.4,0,0.6,0.1,0,0.4l0,0l1.7-0.6C66.2,78.2,65.6,78.2,65.1,78.3"/>
<path class="st2" d="M65.1,78.3c-0.4,0-0.9,0-1.2,0C64.3,78.3,64.7,78.3,65.1,78.3"/>
<path class="st2" d="M65.6,74.7c0.5-0.3,0.7,0.6,1.8,0.1c2.7-1,4.9-2,7.4-2.6c1.1-0.5,3.2,0,4.3-0.4c2.7-0.9,9.6-3.4,5.4-2.5
	c-6.3,1.4-10.3,2.5-15.8,4.2c-4.4,1.6-8.6,3.3-12.9,5.2c-1.2,0.5-2.4,0.8-3.6,1.2c1.6-0.4,3.2-0.9,5-1.3C59.6,78,62,76,65.6,74.7"/>
<path class="st2" d="M34.4,89.8c0.5-0.3,1.5-1,1.5-1c2.7-0.5,5.1-1.8,7.6-3.2l-1.3,0.1c-1.4,0.7-1.5,1-0.1,0.6
	c-3.2,0.7-6.1,1.9-8.8,3.3C33.4,89.8,33.5,90.1,34.4,89.8"/>
<polyline class="st2" points="31.5,90.5 33.1,89.6 33,89.6 31.4,90.5 31.5,90.5 "/>
<path class="st2" d="M81.8,73.4c7.7-1.6,15.1-2.6,22.4-3.1c0.5-0.2,0.9-0.5,1.7-0.4c0.6,0.1,1.2,0.2,1.7,0.2l3.2-0.1l1.1-0.1l0,0
	c0.6-0.1,0.4-0.3,0-0.4c-0.4-0.1-0.8-0.2-1.1-0.3c0.2,0.1,0.8,0.2,1.1,0.3c0.5,0.1,1.1,0.2,1.7,0.2c1-0.1,2-0.2,3-0.1
	c-1.2,0.1-2.2,0.2-3,0.1l-1.8,0.2l-0.5,0.1c2.4,0,4.8-0.1,7.2-0.1c0.6,0,1.1-0.1,1.5-0.1c1.7-0.2,3.5-0.2,4.6,0.2l1.3,0.1l-0.2-0.1
	l0.5,0.1l5.5,0.3c1.2-0.1,2.4-0.2,3.6-0.3c0,0,0.8,0.4,1.2,0.5c0.5-0.2,1.2-0.3,2.1-0.3c-0.9-0.4-1.8-0.7-2.7-1
	c-1.2-0.5-2.8,0.7-4.2-0.2c1.4,0.9,3-0.3,4.2,0.2c0.8,0.2,1.7,0.6,2.7,1c1.7,0,4,0.3,5.7,1c-2.3,0.1-4.1-0.4-5.7-1
	c-0.8,0-1.6,0.1-2.1,0.3c-0.4-0.2-1.2-0.5-1.2-0.5c-1.2,0.1-2.5,0.2-3.6,0.3c3.6,0.3,7.2,0.6,10.8,1.1c23.5,3,44.8,8.3,68.6,15
	c12.9,3.6,25.2,7.3,37.5,10.5c24.6,6.4,47.9,8.2,74,8.6c10.1,0.3,28.5-3.3,37.7-6c12-4.9,4.4-6.9,3.8-6.9
	c-8.3-1.2-13.6,2.4-29.4,2.8c10.7-0.5-7.5,3.6-17.7,1.5c-14.4-2.6-34.8-1.2-52.4-5.4c-4.3-1-9-1.8-14.2-3
	c-26.8-7-52.1-13.7-81.4-19.7c-7.8-1.5-14.9-1.7-21.5-2.1c-4.9-0.4-10-1.3-14-1.5c-6.3-0.4-11.7-0.1-16.8,0.4
	c5.8-0.2,10-0.4,16.4-0.2c4.3,0.2-3,1-5.9,1.2c-1.2,0.2-3.1-0.9-4.3-0.7c-2.6,0-5.1,0.4-7.9,0.7c-1.2,0.2-1.1-0.7-1.7-0.6
	c-3.9,0.4-6.7,1.7-9.2,1.7c-1.9,0-3.6,0-5.2,0.1c-1,0.1-2.1,0.1-3.1,0.3l-2,0.5c0.6,0.2,0.8,0.5,1.1,0.8c-1,0.1-2.4,0.1-3.5,0.2
	c1-0.1,2.5-0.1,3.5-0.2c-0.2-0.3-0.5-0.6-1.1-0.8c-4.9,1.2-10.6,2.8-15.8,4.3l0.1,0.1c3.1-0.7,6.1-1.3,9.4-1.3
	c-1.4,0-1.3-0.2,0.3-0.6l1.3,0.2c-2.7,0.7-5.4,1.5-8.1,1.4c0,0-1.1,0.4-1.7,0.7c-0.9,0.1-0.9-0.2-1.1-0.4l-1.8,0.5
	C77.6,73.7,81.8,73.4,81.8,73.4"/>
<path class="st2" d="M113.7,69.7c-0.4,0-1,0.1-1.5,0.1c2,0,4.1-0.1,6.1,0C117.2,69.3,115.4,69.5,113.7,69.7"/>
<path class="st2" d="M240.7,91.2c-0.7,2.7,18.2,8.2,21.3,8.8c22.2,4.3,60.9,10.4,100.8,1.2c4.3-1,5.7-4.5,4.2-8
	c-1.1-2.6-3.9-3.3-7.3-2.7c-11.1,2.2-51,12.2-125-6C231.6,83.8,241.4,88.5,240.7,91.2"/>
</svg>
