<?xml version="1.0" encoding="utf-8"?>
<!-- Generator: Adobe Illustrator 24.1.0, SVG Export Plug-In . SVG Version: 6.00 Build 0)  -->
<svg version="1.1" id="Layer_1" xmlns="http://www.w3.org/2000/svg" xmlns:xlink="http://www.w3.org/1999/xlink" x="0px" y="0px"
	 viewBox="0 0 169.2 37.4" style="enable-background:new 0 0 169.2 37.4;" xml:space="preserve">
<style type="text/css">
	.st0{fill:#FFFFFF;}
	.st1{fill:none;stroke:#000000;stroke-width:0.301;}
	.st2{fill:#ED1C24;}
	.st3{fill:none;stroke:#000000;stroke-width:4.000000e-03;}
	.st4{clip-path:url(#SVGID_1_);}
	.st5{clip-path:url(#SVGID_2_);fill:#ED1C24;}
	.st6{clip-path:url(#SVGID_2_);fill:none;stroke:#000000;stroke-width:4.000000e-03;stroke-miterlimit:1;}
	.st7{clip-path:url(#SVGID_2_);}
	.st8{clip-path:url(#SVGID_2_);fill:#FFFFFF;}
	.st9{clip-path:url(#SVGID_2_);fill:none;stroke:#000000;stroke-width:5.000000e-03;}
</style>
<rect x="163.1" y="13.1" class="st0" width="5.4" height="3.6"/>
<rect x="163.1" y="13.1" class="st1" width="5.4" height="3.6"/>
<rect x="163.1" y="17.6" class="st2" width="5.4" height="4.1"/>
<rect x="163.1" y="17.6" class="st3" width="5.4" height="4.1"/>
<g>
	<defs>
		<rect id="SVGID_5_" x="46.3" y="9.1" width="123" height="18.9"/>
	</defs>
	<clipPath id="SVGID_1_">
		<use xlink:href="#SVGID_5_"  style="overflow:visible;"/>
	</clipPath>
	<path class="st4" d="M52.2,17v-2.8c0-0.7-0.1-0.8-1.1-0.9V13c0.8,0.1,1.2,0.1,1.7,0.1c0.5,0,0.9,0,1.7-0.1v0.4
		c-1,0.1-1.1,0.2-1.1,0.9v6.4c0,0.7,0.1,0.8,1.1,0.9v0.4c-0.8-0.1-1.2-0.1-1.7-0.1c-0.5,0-0.9,0-1.7,0.1v-0.4c1-0.1,1.1-0.2,1.1-0.9
		v-3.2h-3.6v3.2c0,0.7,0.1,0.8,1.1,0.9v0.4c-0.8-0.1-1.2-0.1-1.7-0.1c-0.5,0-0.9,0-1.7,0.1v-0.4c1-0.1,1.1-0.2,1.1-0.9v-6.4
		c0-0.7-0.1-0.8-1.1-0.9V13c0.8,0.1,1.2,0.1,1.7,0.1c0.5,0,0.9,0,1.7-0.1v0.4c-1,0.1-1.1,0.2-1.1,0.9V17"/>
	<path class="st4" d="M58.3,18.3c-1.6,0.3-2.3,0.8-2.3,1.8c0,0.8,0.4,1.2,1.1,1.2c0.5,0,0.9-0.3,1.1-0.8c0.1-0.2,0.1-0.6,0.1-1.1
		 M60.4,21.9C60,21.9,59.8,22,59.6,22c-0.7,0-1-0.3-1.1-1.1C58,21.7,57.5,22,56.7,22c-1.1,0-1.8-0.7-1.8-1.7c0-0.8,0.5-1.4,1.5-1.8
		c0.6-0.2,1.2-0.4,2-0.5v-0.8c0-0.5,0-0.7-0.2-0.9c-0.2-0.2-0.5-0.4-0.9-0.4c-0.6,0-1.1,0.3-1.1,0.7l0,0.2l0,0.2
		c0,0.4-0.2,0.6-0.6,0.6c-0.3,0-0.5-0.2-0.5-0.5c0-0.9,1-1.6,2.2-1.6c0.8,0,1.5,0.3,1.8,0.8c0.2,0.3,0.3,0.7,0.3,1.5v2.6
		c0,0.9,0.1,1.1,0.5,1.1c0.1,0,0.2,0,0.3-0.1V21.9z"/>
	<path class="st4" d="M60.8,15.8c0.8-0.1,1.4-0.2,1.8-0.4c0.1,0.3,0.1,0.6,0.2,1.1c0.5-0.7,1-1,1.8-1c0.7,0,1.3,0.3,1.7,0.8
		c0.2,0.3,0.3,0.8,0.3,1.4v3.1c0,0.6,0.1,0.7,0.9,0.7v0.3c-0.7-0.1-1-0.1-1.5-0.1c-0.5,0-0.8,0-1.5,0.1v-0.3c0.6,0,0.8-0.2,0.8-0.7
		v-3.3c0-0.6,0-0.9-0.2-1.1c-0.2-0.3-0.5-0.4-0.9-0.4c-0.4,0-0.8,0.2-1.1,0.5c-0.2,0.3-0.2,0.5-0.2,1v3.2c0,0.5,0.2,0.7,0.8,0.7v0.3
		c-0.6-0.1-1-0.1-1.5-0.1c-0.5,0-0.8,0-1.5,0.1v-0.3c0.8,0,1-0.1,1-0.7v-4c0-0.6,0-0.6-0.1-0.7c-0.1-0.1-0.3-0.1-0.8-0.1"/>
	<path class="st4" d="M68.3,19.8h0.3c0.1,0.4,0.1,0.6,0.3,0.9c0.2,0.5,0.8,0.9,1.4,0.9c0.7,0,1.3-0.5,1.3-1.2c0-0.4-0.2-0.6-0.7-1
		c0,0-0.4-0.2-1.3-0.6c-1-0.5-1.3-0.9-1.3-1.6c0-1,0.9-1.8,2-1.8c0.5,0,0.9,0.1,1.4,0.4l0.2-0.6h0.2v2.1h-0.3
		c-0.1-1.1-0.6-1.6-1.4-1.6c-0.7,0-1.2,0.5-1.2,1c0,0.4,0.2,0.6,0.8,0.9c0.2,0.1,0.3,0.1,1.2,0.5c1,0.5,1.4,0.9,1.4,1.7
		c0,1.1-0.9,1.9-2.2,1.9c-0.6,0-1.1-0.2-1.6-0.6L68.5,22h-0.2"/>
	<path class="st4" d="M77.5,18.1c-0.1-1.6-0.5-2.4-1.3-2.4c-0.8,0-1.3,0.8-1.4,2.4 M78.7,19.9c-0.2,1.4-1,2.2-2.4,2.2
		c-1.7,0-2.8-1.2-2.8-3.3c0-2,1-3.3,2.6-3.3c1.6,0,2.4,1.1,2.5,3.2h-3.9c0,2.1,0.5,2.9,1.7,2.9c0.9,0,1.5-0.6,1.7-1.7H78.7z"/>
	<path class="st4" d="M79.8,19.8h0.3c0.1,0.4,0.1,0.6,0.3,0.9c0.3,0.5,0.8,0.9,1.4,0.9c0.7,0,1.3-0.5,1.3-1.2c0-0.4-0.2-0.6-0.7-1
		c0,0-0.4-0.2-1.2-0.6c-1-0.5-1.3-0.9-1.3-1.6c0-1,0.8-1.8,2-1.8c0.5,0,0.9,0.1,1.4,0.4l0.2-0.6h0.2v2.1h-0.3
		c-0.1-1.1-0.6-1.6-1.4-1.6c-0.7,0-1.2,0.5-1.2,1c0,0.4,0.2,0.6,0.8,0.9c0.2,0.1,0.3,0.1,1.2,0.5c1,0.5,1.4,0.9,1.4,1.7
		c0,1.1-0.9,1.9-2.2,1.9c-0.6,0-1.1-0.2-1.6-0.6L80,22h-0.2"/>
	<path class="st4" d="M88.5,21.5c-0.6,0.3-0.9,0.4-1.3,0.4c-0.7,0-1.1-0.3-1.4-0.8c-0.1-0.3-0.2-0.6-0.2-1.2v-0.2l0.1-3.7h-0.8v-0.4
		c0.9,0,1.4-0.7,1.7-2h0.4l0,1.9h1.5v0.5h-1.5V20c0,0.6,0,0.9,0.1,1.1c0.1,0.3,0.3,0.4,0.6,0.4c0.3,0,0.4,0,0.9-0.3"/>
	<path class="st4" d="M92.4,18.3c-1.6,0.3-2.3,0.8-2.3,1.8c0,0.8,0.4,1.2,1.1,1.2c0.5,0,0.9-0.3,1.1-0.8c0.1-0.2,0.1-0.6,0.1-1.1
		 M94.5,21.9c-0.4,0.1-0.6,0.1-0.8,0.1c-0.7,0-1-0.3-1.1-1.1c-0.5,0.8-0.9,1.2-1.8,1.2c-1.1,0-1.8-0.7-1.8-1.7
		c0-0.8,0.5-1.4,1.5-1.8c0.6-0.2,1.2-0.4,2-0.5v-0.8c0-0.5,0-0.7-0.2-0.9c-0.2-0.2-0.5-0.4-0.9-0.4c-0.6,0-1,0.3-1,0.7l0,0.2l0,0.2
		c0,0.4-0.2,0.6-0.6,0.6c-0.3,0-0.5-0.2-0.5-0.5c0-0.9,1-1.6,2.2-1.6c0.8,0,1.5,0.3,1.8,0.8c0.2,0.3,0.3,0.7,0.3,1.5v2.6
		c0,0.9,0.1,1.1,0.5,1.1c0.1,0,0.2,0,0.3-0.1V21.9z"/>
	<path class="st4" d="M96.2,18.8c0,1.9,0.5,2.9,1.4,2.9c0.9,0,1.4-0.9,1.4-2.8c0-2-0.5-3-1.4-3C96.7,15.9,96.2,16.9,96.2,18.8
		 M101.2,21.7c-1,0.1-1.2,0.2-1.9,0.4c-0.1-0.5-0.1-0.5-0.2-1c-0.4,0.7-0.9,1-1.6,1C96,22,95,20.7,95,18.8c0-1.9,1-3.2,2.5-3.2
		c0.7,0,1,0.2,1.5,0.9v-2.2c0-0.7-0.1-0.8-0.9-0.8v-0.3c0.6-0.1,1.5-0.2,2.1-0.4v7.6c0,0.8,0.1,0.9,1,0.9V21.7z"/>
	<path class="st4" d="M105.2,21.5c-0.6,0.3-0.9,0.4-1.4,0.4c-0.7,0-1.1-0.3-1.4-0.8c-0.1-0.3-0.2-0.6-0.2-1.2v-0.2l0.1-3.7h-0.8
		v-0.4c0.9,0,1.4-0.7,1.7-2h0.4l0,1.9h1.5v0.5h-1.5V20c0,0.6,0,0.9,0.1,1.1c0.1,0.3,0.3,0.4,0.6,0.4c0.3,0,0.4,0,0.9-0.3"/>
	<path class="st4" d="M116.7,21.9h-6v-0.4c1-0.1,1.1-0.2,1.1-0.9v-6.4c0-0.7-0.1-0.8-1.1-0.9V13c0.8,0.1,1.2,0.1,1.7,0.1
		s0.9,0,1.7-0.1v0.4c-1,0.1-1.1,0.2-1.1,0.9v6.4c0,0.6,0.2,0.8,0.9,0.8h0.9c1.1,0,1.5-0.4,1.9-1.7h0.3"/>
	<path class="st4" d="M123.4,11.4c0,0.4-0.4,0.8-0.8,0.8s-0.8-0.4-0.8-0.8c0-0.5,0.4-0.8,0.8-0.8C123.1,10.6,123.4,10.9,123.4,11.4
		 M121,11.4c0,0.4-0.4,0.8-0.8,0.8c-0.4,0-0.8-0.4-0.8-0.8c0-0.5,0.4-0.8,0.8-0.8C120.7,10.6,121,10.9,121,11.4 M124.2,19
		c0,0.9-0.1,1.4-0.5,1.9c-0.5,0.7-1.4,1.1-2.5,1.1c-1,0-1.8-0.3-2.4-0.9c-0.5-0.5-0.6-1-0.6-2v-4.8c0-0.7-0.1-0.8-1.1-0.9V13
		c0.8,0.1,1.2,0.1,1.7,0.1c0.5,0,0.9,0,1.7-0.1v0.4c-1,0.1-1.1,0.2-1.1,0.9v5c0,0.8,0.1,1.2,0.4,1.5c0.4,0.4,0.9,0.6,1.6,0.6
		c0.9,0,1.6-0.3,1.9-0.9c0.2-0.4,0.3-0.8,0.3-1.5v-4.8c0-0.7-0.1-0.8-1.1-0.9V13c0.7,0,1,0.1,1.4,0.1c0.4,0,0.6,0,1.3-0.1v0.4
		c-1,0.1-1.1,0.2-1.1,0.9V19z"/>
	<path class="st4" d="M128.6,20.8c0,0.5,0.1,0.6,0.8,0.6h0.5c1.1,0,1.8-0.7,1.8-2c0-0.6-0.2-1.2-0.5-1.5c-0.3-0.3-0.7-0.4-1.4-0.4
		h-1.2 M129.5,17c0.7,0,1-0.1,1.3-0.4c0.3-0.3,0.4-0.8,0.4-1.4c0-1.2-0.5-1.8-1.5-1.8h-1.1V17H129.5z M129.8,13
		c0.9,0,1.4,0.1,1.8,0.5c0.5,0.4,0.8,1,0.8,1.7c0,1-0.5,1.6-1.5,2c0.4,0.1,0.7,0.2,0.9,0.3c0.6,0.4,1,1.1,1,1.8
		c0,0.9-0.5,1.7-1.2,2.1c-0.5,0.3-1.1,0.4-2.1,0.4h-3.4v-0.4c1-0.1,1.1-0.2,1.1-0.9v-6.3c0-0.7-0.1-0.8-1.1-0.9V13H129.8z"/>
	<path class="st4" d="M140.4,21.9h-6v-0.4c1-0.1,1.1-0.2,1.1-0.9v-6.3c0-0.7-0.1-0.8-1.1-0.9V13h5.9l0.3,2.1h-0.3
		c-0.3-1.3-0.6-1.6-1.6-1.6h-1.8v3.6h1.8c0.6,0,0.7-0.2,0.8-1.1h0.4v2.6h-0.4c0-0.8-0.2-1.1-0.8-1.1h-1.8v3.2c0,0.6,0.2,0.8,0.9,0.8
		h0.9c1.1,0,1.5-0.4,1.9-1.8h0.3"/>
	<path class="st4" d="M148.8,18.8c-0.1,2-1.2,3.2-3,3.2c-2.1,0-3.6-1.8-3.6-4.5c0-2.8,1.4-4.6,3.6-4.6c0.9,0,1.5,0.3,2.1,0.8
		l0.5-0.8h0.3v2.7h-0.3c-0.4-1.5-1.1-2.3-2.3-2.3c-0.9,0-1.5,0.4-1.9,1.2c-0.4,0.7-0.6,1.7-0.6,2.9c0,2.6,0.9,4,2.4,4
		c1.4,0,2.2-0.9,2.3-2.5"/>
	<path class="st4" d="M155.3,14c0.1-0.2,0.2-0.3,0.2-0.4c0-0.2-0.1-0.3-0.8-0.3V13c0.6,0,0.9,0.1,1.4,0.1s0.8,0,1.4-0.1v0.4
		c-0.8,0-1.1,0.2-1.6,0.7l-2.2,2.4l2.9,4.2c0.5,0.7,0.7,0.8,1.5,0.9v0.4c-0.8-0.1-1.2-0.1-1.8-0.1c-0.6,0-1,0-1.8,0.1v-0.4
		c0.7-0.1,0.9-0.1,0.9-0.4c0-0.1,0-0.2-0.2-0.5l-2.3-3.5l-0.6,0.6v2.8c0,0.7,0.1,0.8,1.1,0.9v0.4c-0.7-0.1-1-0.1-1.6-0.1
		c-0.6,0-1,0-1.7,0.1v-0.4c1-0.1,1.1-0.2,1.1-0.9v-6.4c0-0.7-0.1-0.8-1.1-0.9V13c0.8,0.1,1.2,0.1,1.7,0.1c0.6,0,0.9,0,1.7-0.1v0.4
		c-1,0.1-1.1,0.2-1.1,0.9v3"/>
</g>
<g>
	<defs>
		<rect id="SVGID_7_" width="37.4" height="37.4"/>
	</defs>
	<clipPath id="SVGID_2_">
		<use xlink:href="#SVGID_7_"  style="overflow:visible;"/>
	</clipPath>
	<path class="st5" d="M13,21.9l-1.8,2.4c0,0-1.2-0.3-1.7-0.3c-0.5,0-0.8,0.1-1,0.4c-0.2,0.2-0.2,0.8-0.2,0.8s0.4-0.5,0.9-0.4
		c0.5,0.1,1,0.3,1,0.3s-0.8,0.5-1.2,0.8c-0.3,0.2-0.5,0.6-0.5,0.9c-0.1,0.6,0.8,1.1,0.8,1.1s-0.2-0.9,0-1.1c0.3-0.3,0.9-0.4,0.9-0.4
		s0,1.3,0.4,1.7c0.7,0.7,1.7,0.1,1.7,0.1s-0.8,0-1-0.5c-0.2-0.5,0-1.7,0-1.7s1.4-0.3,1.7-0.2c0.4,0.2,0.6,0.9,0.6,0.9
		s0.2-0.4,0.1-0.8c0-0.4-0.1-1-1.9-1l1.9-2.2"/>
	<path class="st6" d="M13,21.9l-1.8,2.4c0,0-1.2-0.3-1.7-0.3c-0.5,0-0.8,0.1-1,0.4c-0.2,0.2-0.2,0.8-0.2,0.8s0.4-0.5,0.9-0.4
		c0.5,0.1,1,0.3,1,0.3s-0.8,0.5-1.2,0.8c-0.3,0.2-0.5,0.6-0.5,0.9c-0.1,0.6,0.8,1.1,0.8,1.1s-0.2-0.9,0-1.1c0.3-0.3,0.9-0.4,0.9-0.4
		s0,1.3,0.4,1.7c0.7,0.7,1.7,0.1,1.7,0.1s-0.8,0-1-0.5c-0.2-0.5,0-1.7,0-1.7s1.4-0.3,1.7-0.2c0.4,0.2,0.6,0.9,0.6,0.9
		s0.2-0.4,0.1-0.8c0-0.4-0.1-1-1.9-1l1.9-2.2"/>
	<path class="st5" d="M23,21.9l1.8,2.4c0,0,1.2-0.3,1.7-0.3c0.5,0,0.8,0.1,1,0.4c0.2,0.2,0.2,0.8,0.2,0.8s-0.4-0.5-0.9-0.4
		c-0.5,0.1-1,0.3-1,0.3s0.8,0.5,1.2,0.8c0.3,0.2,0.5,0.6,0.5,0.9c0.1,0.6-0.8,1.1-0.8,1.1s0.2-0.9,0-1.1c-0.3-0.3-0.9-0.4-0.9-0.4
		s0,1.3-0.4,1.7c-0.7,0.7-1.7,0.1-1.7,0.1s0.8,0,1-0.5c0.2-0.5,0-1.7,0-1.7s-1.4-0.3-1.7-0.2c-0.4,0.2-0.6,0.9-0.6,0.9
		s-0.2-0.4-0.1-0.8c0-0.4,0.1-1,1.9-1L22,22.5"/>
	<path class="st6" d="M23,21.9l1.8,2.4c0,0,1.2-0.3,1.7-0.3c0.5,0,0.8,0.1,1,0.4c0.2,0.2,0.2,0.8,0.2,0.8s-0.4-0.5-0.9-0.4
		c-0.5,0.1-1,0.3-1,0.3s0.8,0.5,1.2,0.8c0.3,0.2,0.5,0.6,0.5,0.9c0.1,0.6-0.8,1.1-0.8,1.1s0.2-0.9,0-1.1c-0.3-0.3-0.9-0.4-0.9-0.4
		s0,1.3-0.4,1.7c-0.7,0.7-1.7,0.1-1.7,0.1s0.8,0,1-0.5c0.2-0.5,0-1.7,0-1.7s-1.4-0.3-1.7-0.2c-0.4,0.2-0.6,0.9-0.6,0.9
		s-0.2-0.4-0.1-0.8c0-0.4,0.1-1,1.9-1L22,22.5"/>
	<path class="st5" d="M12.9,0.7c0,0-0.7-0.1-0.9-0.1c-0.2,0-0.7,0-1,0.2c-0.3,0.2-0.3,0.7-0.3,0.9c0,0,0.2-0.2,0.9-0.2
		c0.4,0,1.3,0.2,1.6,0.3"/>
	<path class="st6" d="M12.9,0.7c0,0-0.7-0.1-0.9-0.1c-0.2,0-0.7,0-1,0.2c-0.3,0.2-0.3,0.7-0.3,0.9c0,0,0.2-0.2,0.9-0.2
		c0.4,0,1.3,0.2,1.6,0.3"/>
	<path class="st5" d="M13.6,2.8c0,0-0.5,0.2-0.8,0.3c-0.5,0.1-1.3,0.3-1.6,0.3c0,0,0.5,0.7,2.7,0.2"/>
	<path class="st6" d="M13.6,2.8c0,0-0.5,0.2-0.8,0.3c-0.5,0.1-1.3,0.3-1.6,0.3c0,0,0.5,0.7,2.7,0.2"/>
	<path class="st5" d="M23.1,0.7c0,0,0.7-0.1,0.9-0.1c0.2,0,0.7,0,1,0.2c0.3,0.2,0.4,0.7,0.3,0.9c0,0-0.2-0.2-0.9-0.2
		c-0.4,0-1.3,0.2-1.6,0.3"/>
	<path class="st6" d="M23.1,0.7c0,0,0.7-0.1,0.9-0.1c0.2,0,0.7,0,1,0.2c0.3,0.2,0.4,0.7,0.3,0.9c0,0-0.2-0.2-0.9-0.2
		c-0.4,0-1.3,0.2-1.6,0.3"/>
	<path class="st5" d="M22.4,2.8c0,0,0.5,0.2,0.8,0.3c0.5,0.1,1.3,0.3,1.6,0.3c0,0-0.5,0.7-2.7,0.2"/>
	<path class="st6" d="M22.4,2.8c0,0,0.5,0.2,0.8,0.3c0.5,0.1,1.3,0.3,1.6,0.3c0,0-0.5,0.7-2.7,0.2"/>
	<path class="st7" d="M29.4,7.7c5.3-0.3,5.7-1.2,5.9-1.6c-0.1,0-1.6,0.8-5.9,0.7c0-0.1,0-0.4,0.1-0.5c5.3,0.2,6.1-3.2,6.1-3.2
		c-1.5,0.8-3.3,0.9-5,0.8c-0.2,0-2.5-0.4-3.3-0.3c-0.5,0-1,0.4-1.2,0.9c-0.1,0.4-0.1,0.8,0.1,1.1c0.1,0.3,0.4,0.5,0.7,0.6l0,0
		c-0.2,0.9-0.5,1.9-1.4,2.5c-0.7,0.5-1.8,0.6-2.6,0.2c-0.6-0.4-0.8-1-0.9-1.7c-0.2-1.3-0.1-2.5,0.3-3.7c0.1-0.3,0.2-0.7,0.3-0.9
		c0.1-0.1,0.2-0.1,0.3-0.2c0.9-0.2,1.7,0.3,2.7,0.3c0.5,0,1-0.3,1.2-0.7c0,0-0.5,0.6-2.1,0.2c-0.6-0.1-1.3-0.2-1.9,0.1
		c0-0.1,0.8-1.3,0.4-1.7c-0.3-0.5-0.9-0.6-1.4-0.5c-0.7,0.1-1.2,0.5-1.9,0.5c-0.4,0-0.8-0.1-0.8-0.1c0.4,0.5,0.5,1.5,0.2,2.1
		c-0.2,0.4-0.5,0.9-0.8,1.3c0,0,0.6,0,0.7-0.2c-0.1,0.6-0.7,1.4-0.9,1.6c0.1,0.1,0.5,0,0.5,0c-0.4,0.9-0.7,1.9-0.8,3
		c-0.1-1.1-0.4-2-0.8-3c0,0,0.3,0.1,0.5,0c-0.2-0.3-0.8-1-0.9-1.6c0.2,0.1,0.7,0.2,0.7,0.2c-0.3-0.4-0.6-0.8-0.8-1.3
		c-0.3-0.6-0.2-1.6,0.2-2.1c0,0-0.4,0.1-0.8,0.1c-0.7,0-1.2-0.5-1.9-0.5c-0.5,0-1.1,0-1.4,0.5c-0.3,0.4,0.4,1.6,0.5,1.7
		c-0.6-0.3-1.3-0.2-1.9-0.1C9.7,2.7,9.3,2,9.3,2c0.2,0.5,0.7,0.7,1.2,0.7c0.9,0.1,1.7-0.5,2.7-0.3c0.1,0,0.3,0.1,0.3,0.2
		c0.1,0.3,0.3,0.6,0.3,0.9c0.3,1.2,0.5,2.5,0.3,3.7C14,7.9,13.8,8.6,13.2,9c-0.7,0.4-1.9,0.3-2.6-0.2C9.8,8.1,9.5,7.2,9.2,6.3l0,0
		C9.6,6.1,9.8,5.9,10,5.6c0.2-0.3,0.2-0.8,0.1-1.1C9.8,4,9.3,3.6,8.8,3.6C7.9,3.5,5.7,3.9,5.5,3.9c-1.7,0.1-3.5,0-5-0.8
		c0,0,0.8,3.3,6.1,3.2c0,0.1,0.1,0.4,0.1,0.5C2.4,6.9,0.8,6.1,0.7,6.1c0.2,0.4,0.6,1.3,5.9,1.6C2.4,9.5,1,9.3,0.6,9.2
		c0.4,0.9,1.3,2.7,6.7,0.4l0.1,0.2c-3.3,2.4-5.6,2.7-5.6,2.8c0.3,0.1,1.9,0.7,5.9-1.8c0,0-2.8,3.9-6.3,4.3C1.8,15.7,2.4,16,3.1,16
		c1.7-0.1,3.1-0.9,4.5-2c0.5-0.5,1-0.9,1.4-1.5l0.2,0.3c-1.6,3.2-4.6,6-4.6,6c1.9,0,5.3-5.4,5.3-5.4c0,0-2.1,5.6-4.5,8.7
		c-0.4,0.5-0.9,0.8-1.3,1.1c2.5,0.4,3.6-0.1,6-4.7c0.5-1.1,1.3-2.5,2-4.2l0.3,0.1C12,19.8,10,21.8,10,21.8s1.7,0.2,3.1-5.4
		c0,0,0.9,2.2,0.3,3.7c-0.4,0.9-1.3,1.7-2.1,2.3c0.5,0.2,1,0.2,1.4,0.1c0.5,0.1,0.8-0.3,0.8-0.3c0.1,0.2,0.2,0.4,0.4,0.6
		c0.2,0.7,0.6,1.2,0.8,1.3v-0.8c0.2,0.1,0.4,0.1,0.4,0.1c0.4-1.7,1.2-2.6,1.3-2.5C16,23,14.9,29,12.6,31.6c0,0,3,0.6,4.5-5.7
		c0,1.4,0.1,2.8-0.3,4c-0.1,0.3-0.3,0.6-0.6,0.8c0,0,1.2,1.3,1.7,1.5v0l0,0l0,0v0c0.5-0.2,1.7-1.5,1.7-1.5c-0.3-0.2-0.4-0.5-0.6-0.8
		c-0.4-1.3-0.3-2.7-0.3-4c1.5,6.3,4.5,5.7,4.5,5.7C21.1,29,20,23,19.7,20.9c0,0,0.8,0.8,1.3,2.5c0,0,0.1,0,0.3-0.1v0.8
		c0.2-0.1,0.6-0.6,0.8-1.3c0.1-0.2,0.3-0.4,0.4-0.6c0,0,0.4,0.4,0.8,0.3c0.4,0.1,0.9,0.2,1.4-0.1c-0.8-0.7-1.7-1.4-2.1-2.3
		c-0.5-1.5,0.3-3.7,0.3-3.7c1.4,5.7,3.1,5.4,3.1,5.4s-2-2-2.3-7.3l0.3-0.1c0.7,1.7,1.4,3,2,4.2c2.4,4.7,3.5,5.1,6,4.7
		c-0.4-0.3-0.9-0.6-1.3-1.1c-2.4-3.1-4.5-8.6-4.5-8.7c0,0,3.3,5.4,5.3,5.4c0,0-3-2.8-4.6-6l0.2-0.3c0.4,0.5,1,1,1.4,1.5
		c1.3,1.1,2.7,1.9,4.5,2c0.7,0,1.4-0.3,1.8-0.9c-3.5-0.5-6.3-4.3-6.3-4.3c4,2.6,5.6,2,5.9,1.8c-0.1-0.1-2.3-0.4-5.6-2.8l0.1-0.2
		c5.4,2.2,6.3,0.4,6.7-0.4C34.9,9.3,33.5,9.5,29.4,7.7"/>
	<path class="st6" d="M29.4,7.7c5.3-0.3,5.7-1.2,5.9-1.6c-0.1,0-1.6,0.8-5.9,0.7c0-0.1,0-0.4,0.1-0.5c5.3,0.2,6.1-3.2,6.1-3.2
		c-1.5,0.8-3.3,0.9-5,0.8c-0.2,0-2.5-0.4-3.3-0.3c-0.5,0-1,0.4-1.2,0.9c-0.1,0.4-0.1,0.8,0.1,1.1c0.1,0.3,0.4,0.5,0.7,0.6l0,0
		c-0.2,0.9-0.5,1.9-1.4,2.5c-0.7,0.5-1.8,0.6-2.6,0.2c-0.6-0.4-0.8-1-0.9-1.7c-0.2-1.3-0.1-2.5,0.3-3.7c0.1-0.3,0.2-0.7,0.3-0.9
		c0.1-0.1,0.2-0.1,0.3-0.2c0.9-0.2,1.7,0.3,2.7,0.3c0.5,0,1-0.3,1.2-0.7c0,0-0.5,0.6-2.1,0.2c-0.6-0.1-1.3-0.2-1.9,0.1
		c0-0.1,0.8-1.3,0.4-1.7c-0.3-0.5-0.9-0.6-1.4-0.5c-0.7,0.1-1.2,0.5-1.9,0.5c-0.4,0-0.8-0.1-0.8-0.1c0.4,0.5,0.5,1.5,0.2,2.1
		c-0.2,0.4-0.5,0.9-0.8,1.3c0,0,0.6,0,0.7-0.2c-0.1,0.6-0.7,1.4-0.9,1.6c0.1,0.1,0.5,0,0.5,0c-0.4,0.9-0.7,1.9-0.8,3
		c-0.1-1.1-0.4-2-0.8-3c0,0,0.3,0.1,0.5,0c-0.2-0.3-0.8-1-0.9-1.6c0.2,0.1,0.7,0.2,0.7,0.2c-0.3-0.4-0.6-0.8-0.8-1.3
		c-0.3-0.6-0.2-1.6,0.2-2.1c0,0-0.4,0.1-0.8,0.1c-0.7,0-1.2-0.5-1.9-0.5c-0.5,0-1.1,0-1.4,0.5c-0.3,0.4,0.4,1.6,0.5,1.7
		c-0.6-0.3-1.3-0.2-1.9-0.1C9.7,2.7,9.3,2,9.3,2c0.2,0.5,0.7,0.7,1.2,0.7c0.9,0.1,1.7-0.5,2.7-0.3c0.1,0,0.3,0.1,0.3,0.2
		c0.1,0.3,0.3,0.6,0.3,0.9c0.3,1.2,0.5,2.5,0.3,3.7C14,7.9,13.8,8.6,13.2,9c-0.7,0.4-1.9,0.3-2.6-0.2C9.8,8.1,9.5,7.2,9.2,6.3l0,0
		C9.6,6.1,9.8,5.9,10,5.6c0.2-0.3,0.2-0.8,0.1-1.1C9.8,4,9.3,3.6,8.8,3.6C7.9,3.5,5.7,3.9,5.5,3.9c-1.7,0.1-3.5,0-5-0.8
		c0,0,0.8,3.3,6.1,3.2c0,0.1,0.1,0.4,0.1,0.5C2.4,6.9,0.8,6.1,0.7,6.1c0.2,0.4,0.6,1.3,5.9,1.6C2.4,9.5,1,9.3,0.6,9.2
		c0.4,0.9,1.3,2.7,6.7,0.4l0.1,0.2c-3.3,2.4-5.6,2.7-5.6,2.8c0.3,0.1,1.9,0.7,5.9-1.8c0,0-2.8,3.9-6.3,4.3C1.8,15.7,2.4,16,3.1,16
		c1.7-0.1,3.1-0.9,4.5-2c0.5-0.5,1-0.9,1.4-1.5l0.2,0.3c-1.6,3.2-4.6,6-4.6,6c1.9,0,5.3-5.4,5.3-5.4c0,0-2.1,5.6-4.5,8.7
		c-0.4,0.5-0.9,0.8-1.3,1.1c2.5,0.4,3.6-0.1,6-4.7c0.5-1.1,1.3-2.5,2-4.2l0.3,0.1C12,19.8,10,21.8,10,21.8s1.7,0.2,3.1-5.4
		c0,0,0.9,2.2,0.3,3.7c-0.4,0.9-1.3,1.7-2.1,2.3c0.5,0.2,1,0.2,1.4,0.1c0.5,0.1,0.8-0.3,0.8-0.3c0.1,0.2,0.2,0.4,0.4,0.6
		c0.2,0.7,0.6,1.2,0.8,1.3v-0.8c0.2,0.1,0.4,0.1,0.4,0.1c0.4-1.7,1.2-2.6,1.3-2.5C16,23,14.9,29,12.6,31.6c0,0,3,0.6,4.5-5.7
		c0,1.4,0.1,2.8-0.3,4c-0.1,0.3-0.3,0.6-0.6,0.8c0,0,1.2,1.3,1.7,1.5v0l0,0l0,0v0c0.5-0.2,1.7-1.5,1.7-1.5c-0.3-0.2-0.4-0.5-0.6-0.8
		c-0.4-1.3-0.3-2.7-0.3-4c1.5,6.3,4.5,5.7,4.5,5.7C21.1,29,20,23,19.7,20.9c0,0,0.8,0.8,1.3,2.5c0,0,0.1,0,0.3-0.1v0.8
		c0.2-0.1,0.6-0.6,0.8-1.3c0.1-0.2,0.3-0.4,0.4-0.6c0,0,0.4,0.4,0.8,0.3c0.4,0.1,0.9,0.2,1.4-0.1c-0.8-0.7-1.7-1.4-2.1-2.3
		c-0.5-1.5,0.3-3.7,0.3-3.7c1.4,5.7,3.1,5.4,3.1,5.4s-2-2-2.3-7.3l0.3-0.1c0.7,1.7,1.4,3,2,4.2c2.4,4.7,3.5,5.1,6,4.7
		c-0.4-0.3-0.9-0.6-1.3-1.1c-2.4-3.1-4.5-8.6-4.5-8.7c0,0,3.3,5.4,5.3,5.4c0,0-3-2.8-4.6-6l0.2-0.3c0.4,0.5,1,1,1.4,1.5
		c1.3,1.1,2.7,1.9,4.5,2c0.7,0,1.4-0.3,1.8-0.9c-3.5-0.5-6.3-4.3-6.3-4.3c4,2.6,5.6,2,5.9,1.8c-0.1-0.1-2.3-0.4-5.6-2.8l0.1-0.2
		c5.4,2.2,6.3,0.4,6.7-0.4C34.9,9.3,33.5,9.5,29.4,7.7z"/>
	<path class="st8" d="M14.1,1.2c0.2,0,0.6,0.1,0.8,0.1c0.2,0,0.5,0.1,0.7,0.1C15.4,1.7,14.8,2,14,2c0,0-0.2-0.6-0.3-0.8"/>
	<path class="st7" d="M14.5,1.7c0.2,0,0.4-0.2,0.4-0.4c0-0.2-0.2-0.4-0.4-0.4c-0.2,0-0.4,0.2-0.4,0.4C14.2,1.5,14.3,1.7,14.5,1.7"/>
	<polyline class="st8" points="22,14.7 22,10.2 18,10.2 18,10.2 14,10.2 14,14.7 	"/>
	<polyline class="st6" points="22,14.7 22,10.2 18,10.2 18,10.2 14,10.2 14,14.7 	"/>
	<polyline class="st5" points="18,19.7 18,19.7 18,19.7 	"/>
	<polygon class="st9" points="18,19.7 18,19.7 18,19.7 	"/>
	<polyline class="st5" points="18,19.7 18,19.7 18,19.7 	"/>
	<polygon class="st9" points="18,19.7 18,19.7 18,19.7 	"/>
	<path class="st5" d="M14,14.7c0,1.7,0.4,2.7,1.4,3.6c0.8,0.6,1.7,1,2.6,1.4v0l0,0l0,0v0c0.9-0.4,1.8-0.8,2.6-1.4
		c1.1-0.9,1.4-1.9,1.4-3.6"/>
	<path class="st6" d="M14,14.7c0,1.7,0.4,2.7,1.4,3.6c0.8,0.6,1.7,1,2.6,1.4v0l0,0l0,0v0c0.9-0.4,1.8-0.8,2.6-1.4
		c1.1-0.9,1.4-1.9,1.4-3.6"/>
	<path class="st8" d="M21.9,1.2c-0.2,0-0.6,0.1-0.8,0.1c-0.2,0-0.5,0.1-0.7,0.1C20.6,1.7,21.2,2,22,2c0,0,0.2-0.6,0.2-0.8"/>
	<path class="st7" d="M21.4,1.7c-0.2,0-0.4-0.2-0.4-0.4c0-0.2,0.2-0.4,0.4-0.4c0.2,0,0.4,0.2,0.4,0.4C21.8,1.5,21.6,1.7,21.4,1.7"/>
</g>
</svg>
